STARTFONT 2.1
FONT Saemmul_8x4x4
SIZE 16 72 72
FONTBOUNDINGBOX 8 16 0 0
SWIDTH 8000 0
DWIDTH 8 0
STARTPROPERTIES 2
FAMILY_NAME Saemmul_8x4x4
FONT_ASCENT 16
FONT_DESCENT 0
ENDPROPERTIES
CHARS 616
STARTCHAR U+0000
ENCODING 0
SWIDTH 8000 0
DWIDTH 8 0
BBX 8 16 0 0
BITMAP
00
00
00
00
00
00
00
00
00
00
00
00
00
00
00
00
ENDCHAR
STARTCHAR U+263A
ENCODING 9786
SWIDTH 8000 0
DWIDTH 8 0
BBX 8 16 0 0
BITMAP
00
00
3C
42
81
A5
A5
81
A5
BD
99
42
3C
00
00
00
ENDCHAR
STARTCHAR U+263B
ENCODING 9787
SWIDTH 8000 0
DWIDTH 8 0
BBX 8 16 0 0
BITMAP
00
00
3C
7E
FF
DB
DB
FF
DB
C3
E7
7E
3C
00
00
00
ENDCHAR
STARTCHAR U+2665
ENCODING 9829
SWIDTH 8000 0
DWIDTH 8 0
BBX 8 16 0 0
BITMAP
00
00
36
7F
7F
7F
7F
3E
3E
3E
1C
1C
08
00
00
00
ENDCHAR
STARTCHAR U+2666
ENCODING 9830
SWIDTH 8000 0
DWIDTH 8 0
BBX 8 16 0 0
BITMAP
00
00
08
1C
1C
3E
3E
7F
3E
3E
1C
1C
08
00
00
00
ENDCHAR
STARTCHAR U+2663
ENCODING 9827
SWIDTH 8000 0
DWIDTH 8 0
BBX 8 16 0 0
BITMAP
00
00
1C
1C
1C
1C
7F
7F
7F
6B
08
08
3E
00
00
00
ENDCHAR
STARTCHAR U+2660
ENCODING 9824
SWIDTH 8000 0
DWIDTH 8 0
BBX 8 16 0 0
BITMAP
00
00
08
1C
3E
3E
7F
7F
7F
3E
08
08
3E
00
00
00
ENDCHAR
STARTCHAR U+2022
ENCODING 8226
SWIDTH 8000 0
DWIDTH 8 0
BBX 8 16 0 0
BITMAP
00
00
00
00
00
18
3C
3C
3C
18
00
00
00
00
00
00
ENDCHAR
STARTCHAR U+25D8
ENCODING 9688
SWIDTH 8000 0
DWIDTH 8 0
BBX 8 16 0 0
BITMAP
00
FF
FF
FF
FF
E7
C3
C3
C3
E7
FF
FF
FF
FF
00
00
ENDCHAR
STARTCHAR U+25CB
ENCODING 9675
SWIDTH 8000 0
DWIDTH 8 0
BBX 8 16 0 0
BITMAP
00
00
00
00
3C
66
66
66
66
66
3C
00
00
00
00
00
ENDCHAR
STARTCHAR U+25D9
ENCODING 9689
SWIDTH 8000 0
DWIDTH 8 0
BBX 8 16 0 0
BITMAP
00
FF
FF
FF
C3
99
99
99
99
99
C3
FF
FF
FF
00
00
ENDCHAR
STARTCHAR U+2642
ENCODING 9794
SWIDTH 8000 0
DWIDTH 8 0
BBX 8 16 0 0
BITMAP
00
00
18
3C
7E
18
18
3C
66
66
66
66
3C
00
00
00
ENDCHAR
STARTCHAR U+2640
ENCODING 9792
SWIDTH 8000 0
DWIDTH 8 0
BBX 8 16 0 0
BITMAP
00
00
3C
66
66
66
66
3C
18
7E
18
18
18
00
00
00
ENDCHAR
STARTCHAR U+266A
ENCODING 9834
SWIDTH 8000 0
DWIDTH 8 0
BBX 8 16 0 0
BITMAP
00
00
1E
1B
1B
1B
1B
18
18
38
78
78
30
00
00
00
ENDCHAR
STARTCHAR U+266B
ENCODING 9835
SWIDTH 8000 0
DWIDTH 8 0
BBX 8 16 0 0
BITMAP
00
00
3F
33
3F
33
33
33
33
73
F7
6F
06
00
00
00
ENDCHAR
STARTCHAR U+263C
ENCODING 9788
SWIDTH 8000 0
DWIDTH 8 0
BBX 8 16 0 0
BITMAP
00
00
18
DB
7E
3C
66
E7
66
3C
7E
DB
18
00
00
00
ENDCHAR
STARTCHAR U+25BA
ENCODING 9658
SWIDTH 8000 0
DWIDTH 8 0
BBX 8 16 0 0
BITMAP
00
00
40
60
70
78
7C
7F
7C
78
70
60
40
00
00
00
ENDCHAR
STARTCHAR U+25C4
ENCODING 9668
SWIDTH 8000 0
DWIDTH 8 0
BBX 8 16 0 0
BITMAP
00
00
01
03
07
0F
1F
7F
1F
0F
07
03
01
00
00
00
ENDCHAR
STARTCHAR U+2195
ENCODING 8597
SWIDTH 8000 0
DWIDTH 8 0
BBX 8 16 0 0
BITMAP
00
00
18
3C
7E
18
18
18
18
18
7E
3C
18
00
00
00
ENDCHAR
STARTCHAR U+203C
ENCODING 8252
SWIDTH 8000 0
DWIDTH 8 0
BBX 8 16 0 0
BITMAP
00
00
66
66
66
66
66
66
66
66
00
66
66
00
00
00
ENDCHAR
STARTCHAR U+00B6
ENCODING 182
SWIDTH 8000 0
DWIDTH 8 0
BBX 8 16 0 0
BITMAP
00
00
7F
DB
DB
DB
DB
7B
1B
1B
1B
1B
1B
00
00
00
ENDCHAR
STARTCHAR U+00A7
ENCODING 167
SWIDTH 8000 0
DWIDTH 8 0
BBX 8 16 0 0
BITMAP
00
3E
63
60
60
3E
63
63
63
3E
03
03
63
3E
00
00
ENDCHAR
STARTCHAR U+25AC
ENCODING 9644
SWIDTH 8000 0
DWIDTH 8 0
BBX 8 16 0 0
BITMAP
00
00
00
00
00
00
00
00
7F
7F
7F
7F
7F
00
00
00
ENDCHAR
STARTCHAR U+21A8
ENCODING 8616
SWIDTH 8000 0
DWIDTH 8 0
BBX 8 16 0 0
BITMAP
00
00
18
3C
7E
18
18
18
18
18
7E
3C
18
7E
00
00
ENDCHAR
STARTCHAR U+2191
ENCODING 8593
SWIDTH 8000 0
DWIDTH 8 0
BBX 8 16 0 0
BITMAP
00
00
18
3C
7E
18
18
18
18
18
18
18
18
00
00
00
ENDCHAR
STARTCHAR U+2193
ENCODING 8595
SWIDTH 8000 0
DWIDTH 8 0
BBX 8 16 0 0
BITMAP
00
00
18
18
18
18
18
18
18
18
7E
3C
18
00
00
00
ENDCHAR
STARTCHAR U+2192
ENCODING 8594
SWIDTH 8000 0
DWIDTH 8 0
BBX 8 16 0 0
BITMAP
00
00
00
00
08
0C
0E
7F
0E
0C
08
00
00
00
00
00
ENDCHAR
STARTCHAR U+2190
ENCODING 8592
SWIDTH 8000 0
DWIDTH 8 0
BBX 8 16 0 0
BITMAP
00
00
00
00
08
18
38
7F
38
18
08
00
00
00
00
00
ENDCHAR
STARTCHAR U+221F
ENCODING 8735
SWIDTH 8000 0
DWIDTH 8 0
BBX 8 16 0 0
BITMAP
00
00
00
00
00
00
00
00
60
60
60
60
7F
00
00
00
ENDCHAR
STARTCHAR U+2194
ENCODING 8596
SWIDTH 8000 0
DWIDTH 8 0
BBX 8 16 0 0
BITMAP
00
00
00
00
10
34
76
FF
6E
2C
08
00
00
00
00
00
ENDCHAR
STARTCHAR U+25B2
ENCODING 9650
SWIDTH 8000 0
DWIDTH 8 0
BBX 8 16 0 0
BITMAP
00
00
08
08
08
1C
1C
1C
3E
3E
3E
7F
7F
00
00
00
ENDCHAR
STARTCHAR U+25BC
ENCODING 9660
SWIDTH 8000 0
DWIDTH 8 0
BBX 8 16 0 0
BITMAP
00
00
7F
7F
3E
3E
3E
1C
1C
1C
08
08
08
00
00
00
ENDCHAR
STARTCHAR U+0020
ENCODING 32
SWIDTH 8000 0
DWIDTH 8 0
BBX 8 16 0 0
BITMAP
00
00
00
00
00
00
00
00
00
00
00
00
00
00
00
00
ENDCHAR
STARTCHAR U+0021
ENCODING 33
SWIDTH 8000 0
DWIDTH 8 0
BBX 8 16 0 0
BITMAP
00
00
18
3C
3C
3C
3C
18
18
18
00
18
18
00
00
00
ENDCHAR
STARTCHAR U+0022
ENCODING 34
SWIDTH 8000 0
DWIDTH 8 0
BBX 8 16 0 0
BITMAP
00
66
66
66
66
00
00
00
00
00
00
00
00
00
00
00
ENDCHAR
STARTCHAR U+0023
ENCODING 35
SWIDTH 8000 0
DWIDTH 8 0
BBX 8 16 0 0
BITMAP
00
00
36
36
36
7F
36
36
36
7F
36
36
36
00
00
00
ENDCHAR
STARTCHAR U+0024
ENCODING 36
SWIDTH 8000 0
DWIDTH 8 0
BBX 8 16 0 0
BITMAP
00
1C
1C
3E
63
60
60
3E
03
03
63
3E
1C
1C
00
00
ENDCHAR
STARTCHAR U+0025
ENCODING 37
SWIDTH 8000 0
DWIDTH 8 0
BBX 8 16 0 0
BITMAP
00
00
63
63
66
66
0C
0C
18
33
33
63
63
00
00
00
ENDCHAR
STARTCHAR U+0026
ENCODING 38
SWIDTH 8000 0
DWIDTH 8 0
BBX 8 16 0 0
BITMAP
00
00
38
6C
6C
6C
38
3B
6F
66
66
6F
3B
00
00
00
ENDCHAR
STARTCHAR U+0027
ENCODING 39
SWIDTH 8000 0
DWIDTH 8 0
BBX 8 16 0 0
BITMAP
00
18
18
18
18
00
00
00
00
00
00
00
00
00
00
00
ENDCHAR
STARTCHAR U+0028
ENCODING 40
SWIDTH 8000 0
DWIDTH 8 0
BBX 8 16 0 0
BITMAP
00
06
0C
18
18
30
30
30
30
30
18
18
0C
06
00
00
ENDCHAR
STARTCHAR U+0029
ENCODING 41
SWIDTH 8000 0
DWIDTH 8 0
BBX 8 16 0 0
BITMAP
00
30
18
0C
0C
06
06
06
06
06
0C
0C
18
30
00
00
ENDCHAR
STARTCHAR U+002A
ENCODING 42
SWIDTH 8000 0
DWIDTH 8 0
BBX 8 16 0 0
BITMAP
00
00
00
00
63
36
1C
7F
1C
36
63
00
00
00
00
00
ENDCHAR
STARTCHAR U+002B
ENCODING 43
SWIDTH 8000 0
DWIDTH 8 0
BBX 8 16 0 0
BITMAP
00
00
00
00
18
18
18
FF
18
18
18
00
00
00
00
00
ENDCHAR
STARTCHAR U+002C
ENCODING 44
SWIDTH 8000 0
DWIDTH 8 0
BBX 8 16 0 0
BITMAP
00
00
00
00
00
00
00
00
00
00
18
18
18
18
30
00
ENDCHAR
STARTCHAR U+002D
ENCODING 45
SWIDTH 8000 0
DWIDTH 8 0
BBX 8 16 0 0
BITMAP
00
00
00
00
00
00
00
FF
00
00
00
00
00
00
00
00
ENDCHAR
STARTCHAR U+002E
ENCODING 46
SWIDTH 8000 0
DWIDTH 8 0
BBX 8 16 0 0
BITMAP
00
00
00
00
00
00
00
00
00
00
18
18
18
00
00
00
ENDCHAR
STARTCHAR U+002F
ENCODING 47
SWIDTH 8000 0
DWIDTH 8 0
BBX 8 16 0 0
BITMAP
00
00
03
03
06
06
0C
0C
18
18
30
30
60
00
00
00
ENDCHAR
STARTCHAR U+0030
ENCODING 48
SWIDTH 8000 0
DWIDTH 8 0
BBX 8 16 0 0
BITMAP
00
00
3E
63
63
67
6F
7B
73
63
63
63
3E
00
00
00
ENDCHAR
STARTCHAR U+0031
ENCODING 49
SWIDTH 8000 0
DWIDTH 8 0
BBX 8 16 0 0
BITMAP
00
00
0C
1C
3C
0C
0C
0C
0C
0C
0C
0C
3F
00
00
00
ENDCHAR
STARTCHAR U+0032
ENCODING 50
SWIDTH 8000 0
DWIDTH 8 0
BBX 8 16 0 0
BITMAP
00
00
3E
63
63
03
06
0C
18
30
63
63
7F
00
00
00
ENDCHAR
STARTCHAR U+0033
ENCODING 51
SWIDTH 8000 0
DWIDTH 8 0
BBX 8 16 0 0
BITMAP
00
00
3E
63
63
03
06
1E
03
03
63
63
3E
00
00
00
ENDCHAR
STARTCHAR U+0034
ENCODING 52
SWIDTH 8000 0
DWIDTH 8 0
BBX 8 16 0 0
BITMAP
00
00
06
0E
1E
36
66
66
66
66
7F
06
06
00
00
00
ENDCHAR
STARTCHAR U+0035
ENCODING 53
SWIDTH 8000 0
DWIDTH 8 0
BBX 8 16 0 0
BITMAP
00
00
7F
60
60
60
7E
03
03
03
63
63
3E
00
00
00
ENDCHAR
STARTCHAR U+0036
ENCODING 54
SWIDTH 8000 0
DWIDTH 8 0
BBX 8 16 0 0
BITMAP
00
00
3E
63
63
60
60
7E
63
63
63
63
3E
00
00
00
ENDCHAR
STARTCHAR U+0037
ENCODING 55
SWIDTH 8000 0
DWIDTH 8 0
BBX 8 16 0 0
BITMAP
00
00
7F
63
63
03
06
0C
18
18
18
18
18
00
00
00
ENDCHAR
STARTCHAR U+0038
ENCODING 56
SWIDTH 8000 0
DWIDTH 8 0
BBX 8 16 0 0
BITMAP
00
00
3E
63
63
63
63
3E
63
63
63
63
3E
00
00
00
ENDCHAR
STARTCHAR U+0039
ENCODING 57
SWIDTH 8000 0
DWIDTH 8 0
BBX 8 16 0 0
BITMAP
00
00
3E
63
63
63
63
3F
03
03
63
63
3E
00
00
00
ENDCHAR
STARTCHAR U+003A
ENCODING 58
SWIDTH 8000 0
DWIDTH 8 0
BBX 8 16 0 0
BITMAP
00
00
00
18
18
18
00
00
00
18
18
18
00
00
00
00
ENDCHAR
STARTCHAR U+003B
ENCODING 59
SWIDTH 8000 0
DWIDTH 8 0
BBX 8 16 0 0
BITMAP
00
00
00
18
18
18
00
00
00
18
18
18
18
30
00
00
ENDCHAR
STARTCHAR U+003C
ENCODING 60
SWIDTH 8000 0
DWIDTH 8 0
BBX 8 16 0 0
BITMAP
00
00
03
06
0C
18
30
60
30
18
0C
06
03
00
00
00
ENDCHAR
STARTCHAR U+003D
ENCODING 61
SWIDTH 8000 0
DWIDTH 8 0
BBX 8 16 0 0
BITMAP
00
00
00
00
00
00
7F
00
00
7F
00
00
00
00
00
00
ENDCHAR
STARTCHAR U+003E
ENCODING 62
SWIDTH 8000 0
DWIDTH 8 0
BBX 8 16 0 0
BITMAP
00
00
60
30
18
0C
06
03
06
0C
18
30
60
00
00
00
ENDCHAR
STARTCHAR U+003F
ENCODING 63
SWIDTH 8000 0
DWIDTH 8 0
BBX 8 16 0 0
BITMAP
00
00
3E
63
63
03
06
0C
18
18
00
18
18
00
00
00
ENDCHAR
STARTCHAR U+0040
ENCODING 64
SWIDTH 8000 0
DWIDTH 8 0
BBX 8 16 0 0
BITMAP
00
00
3E
63
63
6F
6F
6F
6E
6E
60
60
3E
00
00
00
ENDCHAR
STARTCHAR U+0041
ENCODING 65
SWIDTH 8000 0
DWIDTH 8 0
BBX 8 16 0 0
BITMAP
00
00
08
1C
36
63
63
63
7F
63
63
63
63
00
00
00
ENDCHAR
STARTCHAR U+0042
ENCODING 66
SWIDTH 8000 0
DWIDTH 8 0
BBX 8 16 0 0
BITMAP
00
00
7E
63
63
63
66
7E
63
63
63
63
7E
00
00
00
ENDCHAR
STARTCHAR U+0043
ENCODING 67
SWIDTH 8000 0
DWIDTH 8 0
BBX 8 16 0 0
BITMAP
00
00
3E
63
63
60
60
60
60
60
63
63
3E
00
00
00
ENDCHAR
STARTCHAR U+0044
ENCODING 68
SWIDTH 8000 0
DWIDTH 8 0
BBX 8 16 0 0
BITMAP
00
00
7C
66
63
63
63
63
63
63
63
66
7C
00
00
00
ENDCHAR
STARTCHAR U+0045
ENCODING 69
SWIDTH 8000 0
DWIDTH 8 0
BBX 8 16 0 0
BITMAP
00
00
7F
63
63
60
60
7C
60
60
63
63
7F
00
00
00
ENDCHAR
STARTCHAR U+0046
ENCODING 70
SWIDTH 8000 0
DWIDTH 8 0
BBX 8 16 0 0
BITMAP
00
00
7F
63
63
60
60
7C
60
60
60
60
60
00
00
00
ENDCHAR
STARTCHAR U+0047
ENCODING 71
SWIDTH 8000 0
DWIDTH 8 0
BBX 8 16 0 0
BITMAP
00
00
3E
63
63
60
60
60
6F
63
63
67
3B
00
00
00
ENDCHAR
STARTCHAR U+0048
ENCODING 72
SWIDTH 8000 0
DWIDTH 8 0
BBX 8 16 0 0
BITMAP
00
00
63
63
63
63
63
7F
63
63
63
63
63
00
00
00
ENDCHAR
STARTCHAR U+0049
ENCODING 73
SWIDTH 8000 0
DWIDTH 8 0
BBX 8 16 0 0
BITMAP
00
00
3C
18
18
18
18
18
18
18
18
18
3C
00
00
00
ENDCHAR
STARTCHAR U+004A
ENCODING 74
SWIDTH 8000 0
DWIDTH 8 0
BBX 8 16 0 0
BITMAP
00
00
03
03
03
03
03
03
03
03
63
63
3E
00
00
00
ENDCHAR
STARTCHAR U+004B
ENCODING 75
SWIDTH 8000 0
DWIDTH 8 0
BBX 8 16 0 0
BITMAP
00
00
63
63
63
66
6C
78
6C
66
63
63
63
00
00
00
ENDCHAR
STARTCHAR U+004C
ENCODING 76
SWIDTH 8000 0
DWIDTH 8 0
BBX 8 16 0 0
BITMAP
00
00
60
60
60
60
60
60
60
60
63
63
7F
00
00
00
ENDCHAR
STARTCHAR U+004D
ENCODING 77
SWIDTH 8000 0
DWIDTH 8 0
BBX 8 16 0 0
BITMAP
00
00
63
63
77
7F
7F
6B
63
63
63
63
63
00
00
00
ENDCHAR
STARTCHAR U+004E
ENCODING 78
SWIDTH 8000 0
DWIDTH 8 0
BBX 8 16 0 0
BITMAP
00
00
63
63
73
73
7B
6B
6F
67
67
63
63
00
00
00
ENDCHAR
STARTCHAR U+004F
ENCODING 79
SWIDTH 8000 0
DWIDTH 8 0
BBX 8 16 0 0
BITMAP
00
00
3E
63
63
63
63
63
63
63
63
63
3E
00
00
00
ENDCHAR
STARTCHAR U+0050
ENCODING 80
SWIDTH 8000 0
DWIDTH 8 0
BBX 8 16 0 0
BITMAP
00
00
7E
33
33
33
33
3E
30
30
30
30
78
00
00
00
ENDCHAR
STARTCHAR U+0051
ENCODING 81
SWIDTH 8000 0
DWIDTH 8 0
BBX 8 16 0 0
BITMAP
00
00
3E
63
63
63
63
63
63
63
63
67
3E
06
07
00
ENDCHAR
STARTCHAR U+0052
ENCODING 82
SWIDTH 8000 0
DWIDTH 8 0
BBX 8 16 0 0
BITMAP
00
00
7E
63
63
63
63
7E
6C
66
63
63
63
00
00
00
ENDCHAR
STARTCHAR U+0053
ENCODING 83
SWIDTH 8000 0
DWIDTH 8 0
BBX 8 16 0 0
BITMAP
00
00
3E
63
63
60
60
3E
03
03
63
63
3E
00
00
00
ENDCHAR
STARTCHAR U+0054
ENCODING 84
SWIDTH 8000 0
DWIDTH 8 0
BBX 8 16 0 0
BITMAP
00
00
FF
DB
DB
18
18
18
18
18
18
18
18
00
00
00
ENDCHAR
STARTCHAR U+0055
ENCODING 85
SWIDTH 8000 0
DWIDTH 8 0
BBX 8 16 0 0
BITMAP
00
00
63
63
63
63
63
63
63
63
63
63
3E
00
00
00
ENDCHAR
STARTCHAR U+0056
ENCODING 86
SWIDTH 8000 0
DWIDTH 8 0
BBX 8 16 0 0
BITMAP
00
00
63
63
63
63
63
63
63
63
36
1C
08
00
00
00
ENDCHAR
STARTCHAR U+0057
ENCODING 87
SWIDTH 8000 0
DWIDTH 8 0
BBX 8 16 0 0
BITMAP
00
00
63
63
63
63
63
6B
7F
7F
77
63
63
00
00
00
ENDCHAR
STARTCHAR U+0058
ENCODING 88
SWIDTH 8000 0
DWIDTH 8 0
BBX 8 16 0 0
BITMAP
00
00
63
63
63
63
36
1C
36
63
63
63
63
00
00
00
ENDCHAR
STARTCHAR U+0059
ENCODING 89
SWIDTH 8000 0
DWIDTH 8 0
BBX 8 16 0 0
BITMAP
00
00
C3
C3
C3
66
3C
18
18
18
18
18
3C
00
00
00
ENDCHAR
STARTCHAR U+005A
ENCODING 90
SWIDTH 8000 0
DWIDTH 8 0
BBX 8 16 0 0
BITMAP
00
00
7F
63
63
06
0C
18
30
60
63
63
7F
00
00
00
ENDCHAR
STARTCHAR U+005B
ENCODING 91
SWIDTH 8000 0
DWIDTH 8 0
BBX 8 16 0 0
BITMAP
00
00
3E
30
30
30
30
30
30
30
30
30
3E
00
00
00
ENDCHAR
STARTCHAR U+005C
ENCODING 92
SWIDTH 8000 0
DWIDTH 8 0
BBX 8 16 0 0
BITMAP
00
00
60
60
30
30
18
18
0C
0C
06
06
03
00
00
00
ENDCHAR
STARTCHAR U+005D
ENCODING 93
SWIDTH 8000 0
DWIDTH 8 0
BBX 8 16 0 0
BITMAP
00
00
3E
06
06
06
06
06
06
06
06
06
3E
00
00
00
ENDCHAR
STARTCHAR U+005E
ENCODING 94
SWIDTH 8000 0
DWIDTH 8 0
BBX 8 16 0 0
BITMAP
00
00
08
1C
36
63
00
00
00
00
00
00
00
00
00
00
ENDCHAR
STARTCHAR U+005F
ENCODING 95
SWIDTH 8000 0
DWIDTH 8 0
BBX 8 16 0 0
BITMAP
00
00
00
00
00
00
00
00
00
00
00
00
00
FF
00
00
ENDCHAR
STARTCHAR U+0060
ENCODING 96
SWIDTH 8000 0
DWIDTH 8 0
BBX 8 16 0 0
BITMAP
00
00
18
18
18
0C
00
00
00
00
00
00
00
00
00
00
ENDCHAR
STARTCHAR U+0061
ENCODING 97
SWIDTH 8000 0
DWIDTH 8 0
BBX 8 16 0 0
BITMAP
00
00
00
00
00
3E
63
03
3F
63
63
63
3F
00
00
00
ENDCHAR
STARTCHAR U+0062
ENCODING 98
SWIDTH 8000 0
DWIDTH 8 0
BBX 8 16 0 0
BITMAP
00
00
60
60
60
7E
63
63
63
63
63
63
7E
00
00
00
ENDCHAR
STARTCHAR U+0063
ENCODING 99
SWIDTH 8000 0
DWIDTH 8 0
BBX 8 16 0 0
BITMAP
00
00
00
00
00
3E
63
63
60
60
63
63
3E
00
00
00
ENDCHAR
STARTCHAR U+0064
ENCODING 100
SWIDTH 8000 0
DWIDTH 8 0
BBX 8 16 0 0
BITMAP
00
00
03
03
03
3F
63
63
63
63
63
63
3F
00
00
00
ENDCHAR
STARTCHAR U+0065
ENCODING 101
SWIDTH 8000 0
DWIDTH 8 0
BBX 8 16 0 0
BITMAP
00
00
00
00
00
3E
63
63
7F
60
63
63
3E
00
00
00
ENDCHAR
STARTCHAR U+0066
ENCODING 102
SWIDTH 8000 0
DWIDTH 8 0
BBX 8 16 0 0
BITMAP
00
00
1E
33
33
30
30
7E
30
30
30
30
30
00
00
00
ENDCHAR
STARTCHAR U+0067
ENCODING 103
SWIDTH 8000 0
DWIDTH 8 0
BBX 8 16 0 0
BITMAP
00
00
00
00
00
3E
63
63
63
63
63
3F
03
63
63
3E
ENDCHAR
STARTCHAR U+0068
ENCODING 104
SWIDTH 8000 0
DWIDTH 8 0
BBX 8 16 0 0
BITMAP
00
00
60
60
60
7E
63
63
63
63
63
63
63
00
00
00
ENDCHAR
STARTCHAR U+0069
ENCODING 105
SWIDTH 8000 0
DWIDTH 8 0
BBX 8 16 0 0
BITMAP
00
00
18
18
00
00
18
18
18
18
18
18
18
00
00
00
ENDCHAR
STARTCHAR U+006A
ENCODING 106
SWIDTH 8000 0
DWIDTH 8 0
BBX 8 16 0 0
BITMAP
00
00
06
06
00
00
06
06
06
06
06
06
06
66
66
3C
ENDCHAR
STARTCHAR U+006B
ENCODING 107
SWIDTH 8000 0
DWIDTH 8 0
BBX 8 16 0 0
BITMAP
00
00
60
60
60
63
66
6C
78
78
6C
66
63
00
00
00
ENDCHAR
STARTCHAR U+006C
ENCODING 108
SWIDTH 8000 0
DWIDTH 8 0
BBX 8 16 0 0
BITMAP
00
00
18
18
18
18
18
18
18
18
18
18
18
00
00
00
ENDCHAR
STARTCHAR U+006D
ENCODING 109
SWIDTH 8000 0
DWIDTH 8 0
BBX 8 16 0 0
BITMAP
00
00
00
00
00
76
7F
6B
6B
6B
6B
63
63
00
00
00
ENDCHAR
STARTCHAR U+006E
ENCODING 110
SWIDTH 8000 0
DWIDTH 8 0
BBX 8 16 0 0
BITMAP
00
00
00
00
00
7E
63
63
63
63
63
63
63
00
00
00
ENDCHAR
STARTCHAR U+006F
ENCODING 111
SWIDTH 8000 0
DWIDTH 8 0
BBX 8 16 0 0
BITMAP
00
00
00
00
00
3E
63
63
63
63
63
63
3E
00
00
00
ENDCHAR
STARTCHAR U+0070
ENCODING 112
SWIDTH 8000 0
DWIDTH 8 0
BBX 8 16 0 0
BITMAP
00
00
00
00
00
7E
63
63
63
63
63
7E
60
60
60
60
ENDCHAR
STARTCHAR U+0071
ENCODING 113
SWIDTH 8000 0
DWIDTH 8 0
BBX 8 16 0 0
BITMAP
00
00
00
00
00
3F
63
63
63
63
63
3F
03
03
03
03
ENDCHAR
STARTCHAR U+0072
ENCODING 114
SWIDTH 8000 0
DWIDTH 8 0
BBX 8 16 0 0
BITMAP
00
00
00
00
00
6F
78
70
60
60
60
60
60
00
00
00
ENDCHAR
STARTCHAR U+0073
ENCODING 115
SWIDTH 8000 0
DWIDTH 8 0
BBX 8 16 0 0
BITMAP
00
00
00
00
00
3E
63
63
38
0E
63
63
3E
00
00
00
ENDCHAR
STARTCHAR U+0074
ENCODING 116
SWIDTH 8000 0
DWIDTH 8 0
BBX 8 16 0 0
BITMAP
00
00
30
30
30
7E
30
30
30
30
33
33
1E
00
00
00
ENDCHAR
STARTCHAR U+0075
ENCODING 117
SWIDTH 8000 0
DWIDTH 8 0
BBX 8 16 0 0
BITMAP
00
00
00
00
00
63
63
63
63
63
63
63
3F
00
00
00
ENDCHAR
STARTCHAR U+0076
ENCODING 118
SWIDTH 8000 0
DWIDTH 8 0
BBX 8 16 0 0
BITMAP
00
00
00
00
00
63
63
63
63
63
36
1C
08
00
00
00
ENDCHAR
STARTCHAR U+0077
ENCODING 119
SWIDTH 8000 0
DWIDTH 8 0
BBX 8 16 0 0
BITMAP
00
00
00
00
00
63
63
63
6B
7F
7F
77
63
00
00
00
ENDCHAR
STARTCHAR U+0078
ENCODING 120
SWIDTH 8000 0
DWIDTH 8 0
BBX 8 16 0 0
BITMAP
00
00
00
00
00
63
63
36
1C
1C
36
63
63
00
00
00
ENDCHAR
STARTCHAR U+0079
ENCODING 121
SWIDTH 8000 0
DWIDTH 8 0
BBX 8 16 0 0
BITMAP
00
00
00
00
00
63
63
63
63
63
63
3F
03
63
63
3E
ENDCHAR
STARTCHAR U+007A
ENCODING 122
SWIDTH 8000 0
DWIDTH 8 0
BBX 8 16 0 0
BITMAP
00
00
00
00
00
7F
63
66
0C
18
33
63
7F
00
00
00
ENDCHAR
STARTCHAR U+007B
ENCODING 123
SWIDTH 8000 0
DWIDTH 8 0
BBX 8 16 0 0
BITMAP
00
0E
18
18
18
18
18
70
18
18
18
18
18
0E
00
00
ENDCHAR
STARTCHAR U+007C
ENCODING 124
SWIDTH 8000 0
DWIDTH 8 0
BBX 8 16 0 0
BITMAP
00
00
18
18
18
18
18
00
18
18
18
18
18
00
00
00
ENDCHAR
STARTCHAR U+007D
ENCODING 125
SWIDTH 8000 0
DWIDTH 8 0
BBX 8 16 0 0
BITMAP
00
70
18
18
18
18
18
0E
18
18
18
18
18
70
00
00
ENDCHAR
STARTCHAR U+007E
ENCODING 126
SWIDTH 8000 0
DWIDTH 8 0
BBX 8 16 0 0
BITMAP
00
00
00
00
00
70
DB
0E
00
00
00
00
00
00
00
00
ENDCHAR
STARTCHAR U+2302
ENCODING 8962
SWIDTH 8000 0
DWIDTH 8 0
BBX 8 16 0 0
BITMAP
00
00
08
08
1C
1C
36
36
63
63
63
63
7F
00
00
00
ENDCHAR
STARTCHAR U+00C7
ENCODING 199
SWIDTH 8000 0
DWIDTH 8 0
BBX 8 16 0 0
BITMAP
00
00
3E
63
63
60
60
60
60
60
63
63
3E
0C
06
0C
ENDCHAR
STARTCHAR U+00FC
ENCODING 252
SWIDTH 8000 0
DWIDTH 8 0
BBX 8 16 0 0
BITMAP
00
00
63
63
00
63
63
63
63
63
63
63
3F
00
00
00
ENDCHAR
STARTCHAR U+00E9
ENCODING 233
SWIDTH 8000 0
DWIDTH 8 0
BBX 8 16 0 0
BITMAP
00
06
0C
18
00
3E
63
63
7F
60
60
63
3E
00
00
00
ENDCHAR
STARTCHAR U+00E2
ENCODING 226
SWIDTH 8000 0
DWIDTH 8 0
BBX 8 16 0 0
BITMAP
00
08
1C
36
00
3E
63
03
3F
63
63
63
3F
00
00
00
ENDCHAR
STARTCHAR U+00E4
ENCODING 228
SWIDTH 8000 0
DWIDTH 8 0
BBX 8 16 0 0
BITMAP
00
00
36
36
00
3E
63
03
3F
63
63
63
3F
00
00
00
ENDCHAR
STARTCHAR U+00E0
ENCODING 224
SWIDTH 8000 0
DWIDTH 8 0
BBX 8 16 0 0
BITMAP
00
30
18
0C
00
3E
63
03
3F
63
63
63
3F
00
00
00
ENDCHAR
STARTCHAR U+00E5
ENCODING 229
SWIDTH 8000 0
DWIDTH 8 0
BBX 8 16 0 0
BITMAP
00
1C
36
1C
00
3E
63
03
3F
63
63
63
3F
00
00
00
ENDCHAR
STARTCHAR U+00E7
ENCODING 231
SWIDTH 8000 0
DWIDTH 8 0
BBX 8 16 0 0
BITMAP
00
00
00
00
00
3E
63
63
60
60
60
63
3E
0C
06
0C
ENDCHAR
STARTCHAR U+00EA
ENCODING 234
SWIDTH 8000 0
DWIDTH 8 0
BBX 8 16 0 0
BITMAP
00
08
1C
36
00
3E
63
63
7F
60
60
63
3E
00
00
00
ENDCHAR
STARTCHAR U+00EB
ENCODING 235
SWIDTH 8000 0
DWIDTH 8 0
BBX 8 16 0 0
BITMAP
00
00
36
36
00
3E
63
63
7F
60
60
63
3E
00
00
00
ENDCHAR
STARTCHAR U+00E8
ENCODING 232
SWIDTH 8000 0
DWIDTH 8 0
BBX 8 16 0 0
BITMAP
00
30
18
0C
00
3E
63
63
7F
60
60
63
3E
00
00
00
ENDCHAR
STARTCHAR U+00EF
ENCODING 239
SWIDTH 8000 0
DWIDTH 8 0
BBX 8 16 0 0
BITMAP
00
00
66
66
00
00
18
18
18
18
18
18
18
00
00
00
ENDCHAR
STARTCHAR U+00EE
ENCODING 238
SWIDTH 8000 0
DWIDTH 8 0
BBX 8 16 0 0
BITMAP
00
00
18
3C
66
00
18
18
18
18
18
18
18
00
00
00
ENDCHAR
STARTCHAR U+00EC
ENCODING 236
SWIDTH 8000 0
DWIDTH 8 0
BBX 8 16 0 0
BITMAP
00
00
30
18
0C
00
18
18
18
18
18
18
18
00
00
00
ENDCHAR
STARTCHAR U+00C4
ENCODING 196
SWIDTH 8000 0
DWIDTH 8 0
BBX 8 16 0 0
BITMAP
63
6B
1C
36
63
63
63
63
7F
63
63
63
63
00
00
00
ENDCHAR
STARTCHAR U+00C5
ENCODING 197
SWIDTH 8000 0
DWIDTH 8 0
BBX 8 16 0 0
BITMAP
1C
36
1C
36
63
63
63
63
7F
63
63
63
63
00
00
00
ENDCHAR
STARTCHAR U+00C9
ENCODING 201
SWIDTH 8000 0
DWIDTH 8 0
BBX 8 16 0 0
BITMAP
0C
18
7F
63
63
60
60
7C
60
60
63
63
7F
00
00
00
ENDCHAR
STARTCHAR U+00E6
ENCODING 230
SWIDTH 8000 0
DWIDTH 8 0
BBX 8 16 0 0
BITMAP
00
00
00
00
00
6E
3B
1B
7B
DE
D8
DC
77
00
00
00
ENDCHAR
STARTCHAR U+00C6
ENCODING 198
SWIDTH 8000 0
DWIDTH 8 0
BBX 8 16 0 0
BITMAP
00
00
1F
3D
6D
6C
6C
6E
7C
6C
6D
6D
6F
00
00
00
ENDCHAR
STARTCHAR U+00F4
ENCODING 244
SWIDTH 8000 0
DWIDTH 8 0
BBX 8 16 0 0
BITMAP
00
08
1C
36
00
3E
63
63
63
63
63
63
3E
00
00
00
ENDCHAR
STARTCHAR U+00F6
ENCODING 246
SWIDTH 8000 0
DWIDTH 8 0
BBX 8 16 0 0
BITMAP
00
00
36
36
00
3E
63
63
63
63
63
63
3E
00
00
00
ENDCHAR
STARTCHAR U+00F2
ENCODING 242
SWIDTH 8000 0
DWIDTH 8 0
BBX 8 16 0 0
BITMAP
00
30
18
0C
00
3E
63
63
63
63
63
63
3E
00
00
00
ENDCHAR
STARTCHAR U+00FB
ENCODING 251
SWIDTH 8000 0
DWIDTH 8 0
BBX 8 16 0 0
BITMAP
00
18
3C
66
00
63
63
63
63
63
63
63
3F
00
00
00
ENDCHAR
STARTCHAR U+00F9
ENCODING 249
SWIDTH 8000 0
DWIDTH 8 0
BBX 8 16 0 0
BITMAP
00
30
18
0C
00
63
63
63
63
63
63
63
3F
00
00
00
ENDCHAR
STARTCHAR U+00FF
ENCODING 255
SWIDTH 8000 0
DWIDTH 8 0
BBX 8 16 0 0
BITMAP
00
00
36
36
00
63
63
63
63
63
63
3F
03
63
63
3E
ENDCHAR
STARTCHAR U+00D6
ENCODING 214
SWIDTH 8000 0
DWIDTH 8 0
BBX 8 16 0 0
BITMAP
63
63
00
3E
63
63
63
63
63
63
63
63
3E
00
00
00
ENDCHAR
STARTCHAR U+00DC
ENCODING 220
SWIDTH 8000 0
DWIDTH 8 0
BBX 8 16 0 0
BITMAP
63
63
00
63
63
63
63
63
63
63
63
63
3F
00
00
00
ENDCHAR
STARTCHAR U+00A2
ENCODING 162
SWIDTH 8000 0
DWIDTH 8 0
BBX 8 16 0 0
BITMAP
00
00
0C
0C
3E
63
63
60
60
63
3E
0C
0C
00
00
00
ENDCHAR
STARTCHAR U+00A3
ENCODING 163
SWIDTH 8000 0
DWIDTH 8 0
BBX 8 16 0 0
BITMAP
00
00
1C
36
30
30
30
7C
30
30
30
73
7E
00
00
00
ENDCHAR
STARTCHAR U+00A5
ENCODING 165
SWIDTH 8000 0
DWIDTH 8 0
BBX 8 16 0 0
BITMAP
00
00
C3
C3
C3
66
3C
FF
18
FF
18
18
3C
00
00
00
ENDCHAR
STARTCHAR U+20A7
ENCODING 8359
SWIDTH 8000 0
DWIDTH 8 0
BBX 8 16 0 0
BITMAP
00
00
FC
66
66
66
6C
78
66
6F
66
66
F3
00
00
00
ENDCHAR
STARTCHAR U+0192
ENCODING 402
SWIDTH 8000 0
DWIDTH 8 0
BBX 8 16 0 0
BITMAP
00
00
0E
1B
18
18
7E
18
18
18
18
18
70
00
00
00
ENDCHAR
STARTCHAR U+00E1
ENCODING 225
SWIDTH 8000 0
DWIDTH 8 0
BBX 8 16 0 0
BITMAP
00
0C
18
30
00
3C
66
06
3E
66
66
66
3B
00
00
00
ENDCHAR
STARTCHAR U+00ED
ENCODING 237
SWIDTH 8000 0
DWIDTH 8 0
BBX 8 16 0 0
BITMAP
00
0C
18
30
00
38
18
18
18
18
18
18
3C
00
00
00
ENDCHAR
STARTCHAR U+00F3
ENCODING 243
SWIDTH 8000 0
DWIDTH 8 0
BBX 8 16 0 0
BITMAP
00
06
0C
18
00
3E
63
63
63
63
63
63
3E
00
00
00
ENDCHAR
STARTCHAR U+00FA
ENCODING 250
SWIDTH 8000 0
DWIDTH 8 0
BBX 8 16 0 0
BITMAP
00
0C
18
30
00
63
63
63
63
63
63
63
3F
00
00
00
ENDCHAR
STARTCHAR U+00F1
ENCODING 241
SWIDTH 8000 0
DWIDTH 8 0
BBX 8 16 0 0
BITMAP
00
00
6E
3B
00
7E
63
63
63
63
63
63
63
00
00
00
ENDCHAR
STARTCHAR U+00D1
ENCODING 209
SWIDTH 8000 0
DWIDTH 8 0
BBX 8 16 0 0
BITMAP
3B
6E
00
63
73
73
7B
6B
6F
67
67
63
63
00
00
00
ENDCHAR
STARTCHAR U+00AA
ENCODING 170
SWIDTH 8000 0
DWIDTH 8 0
BBX 8 16 0 0
BITMAP
00
3C
6C
6C
6C
36
00
7E
00
00
00
00
00
00
00
00
ENDCHAR
STARTCHAR U+00BA
ENCODING 186
SWIDTH 8000 0
DWIDTH 8 0
BBX 8 16 0 0
BITMAP
00
38
6C
6C
6C
38
00
7C
00
00
00
00
00
00
00
00
ENDCHAR
STARTCHAR U+00BF
ENCODING 191
SWIDTH 8000 0
DWIDTH 8 0
BBX 8 16 0 0
BITMAP
00
00
0C
0C
00
0C
0C
18
30
60
63
63
3E
00
00
00
ENDCHAR
STARTCHAR U+2310
ENCODING 8976
SWIDTH 8000 0
DWIDTH 8 0
BBX 8 16 0 0
BITMAP
00
00
00
00
00
00
00
7F
60
60
60
60
60
00
00
00
ENDCHAR
STARTCHAR U+00AC
ENCODING 172
SWIDTH 8000 0
DWIDTH 8 0
BBX 8 16 0 0
BITMAP
00
00
00
00
00
00
00
7F
03
03
03
03
03
00
00
00
ENDCHAR
STARTCHAR U+00BD
ENCODING 189
SWIDTH 8000 0
DWIDTH 8 0
BBX 8 16 0 0
BITMAP
00
60
E0
63
66
6C
18
3E
73
C3
0E
18
1F
00
00
00
ENDCHAR
STARTCHAR U+00BC
ENCODING 188
SWIDTH 8000 0
DWIDTH 8 0
BBX 8 16 0 0
BITMAP
00
60
E0
63
66
6C
18
36
6E
DE
36
3F
06
00
00
00
ENDCHAR
STARTCHAR U+00A1
ENCODING 161
SWIDTH 8000 0
DWIDTH 8 0
BBX 8 16 0 0
BITMAP
00
00
18
18
00
18
18
18
18
3C
3C
3C
18
00
00
00
ENDCHAR
STARTCHAR U+00AB
ENCODING 171
SWIDTH 8000 0
DWIDTH 8 0
BBX 8 16 0 0
BITMAP
00
00
09
1B
1B
36
36
6C
36
36
1B
1B
09
00
00
00
ENDCHAR
STARTCHAR U+00BB
ENCODING 187
SWIDTH 8000 0
DWIDTH 8 0
BBX 8 16 0 0
BITMAP
00
00
48
6C
6C
36
36
1B
36
36
6C
6C
48
00
00
00
ENDCHAR
STARTCHAR U+2591
ENCODING 9617
SWIDTH 8000 0
DWIDTH 8 0
BBX 8 16 0 0
BITMAP
44
11
44
11
44
11
44
11
44
11
44
11
44
11
44
11
ENDCHAR
STARTCHAR U+2592
ENCODING 9618
SWIDTH 8000 0
DWIDTH 8 0
BBX 8 16 0 0
BITMAP
AA
55
AA
55
AA
55
AA
55
AA
55
AA
55
AA
55
AA
55
ENDCHAR
STARTCHAR U+2593
ENCODING 9619
SWIDTH 8000 0
DWIDTH 8 0
BBX 8 16 0 0
BITMAP
EE
BB
EE
BB
EE
BB
EE
BB
EE
BB
EE
BB
EE
BB
EE
BB
ENDCHAR
STARTCHAR U+2502
ENCODING 9474
SWIDTH 8000 0
DWIDTH 8 0
BBX 8 16 0 0
BITMAP
18
18
18
18
18
18
18
18
18
18
18
18
18
18
18
18
ENDCHAR
STARTCHAR U+2524
ENCODING 9508
SWIDTH 8000 0
DWIDTH 8 0
BBX 8 16 0 0
BITMAP
18
18
18
18
18
18
18
F8
18
18
18
18
18
18
18
18
ENDCHAR
STARTCHAR U+2561
ENCODING 9569
SWIDTH 8000 0
DWIDTH 8 0
BBX 8 16 0 0
BITMAP
18
18
18
18
18
18
F8
18
F8
18
18
18
18
18
18
18
ENDCHAR
STARTCHAR U+2562
ENCODING 9570
SWIDTH 8000 0
DWIDTH 8 0
BBX 8 16 0 0
BITMAP
36
36
36
36
36
36
36
F6
36
36
36
36
36
36
36
36
ENDCHAR
STARTCHAR U+2556
ENCODING 9558
SWIDTH 8000 0
DWIDTH 8 0
BBX 8 16 0 0
BITMAP
00
00
00
00
00
00
00
FE
36
36
36
36
36
36
36
36
ENDCHAR
STARTCHAR U+2555
ENCODING 9557
SWIDTH 8000 0
DWIDTH 8 0
BBX 8 16 0 0
BITMAP
00
00
00
00
00
00
F8
18
F8
18
18
18
18
18
18
18
ENDCHAR
STARTCHAR U+2563
ENCODING 9571
SWIDTH 8000 0
DWIDTH 8 0
BBX 8 16 0 0
BITMAP
36
36
36
36
36
36
F6
06
F6
36
36
36
36
36
36
36
ENDCHAR
STARTCHAR U+2551
ENCODING 9553
SWIDTH 8000 0
DWIDTH 8 0
BBX 8 16 0 0
BITMAP
36
36
36
36
36
36
36
36
36
36
36
36
36
36
36
36
ENDCHAR
STARTCHAR U+2557
ENCODING 9559
SWIDTH 8000 0
DWIDTH 8 0
BBX 8 16 0 0
BITMAP
00
00
00
00
00
00
FE
06
F6
36
36
36
36
36
36
36
ENDCHAR
STARTCHAR U+255D
ENCODING 9565
SWIDTH 8000 0
DWIDTH 8 0
BBX 8 16 0 0
BITMAP
36
36
36
36
36
36
F6
06
FE
00
00
00
00
00
00
00
ENDCHAR
STARTCHAR U+255C
ENCODING 9564
SWIDTH 8000 0
DWIDTH 8 0
BBX 8 16 0 0
BITMAP
36
36
36
36
36
36
36
FE
00
00
00
00
00
00
00
00
ENDCHAR
STARTCHAR U+255B
ENCODING 9563
SWIDTH 8000 0
DWIDTH 8 0
BBX 8 16 0 0
BITMAP
18
18
18
18
18
18
F8
18
F8
00
00
00
00
00
00
00
ENDCHAR
STARTCHAR U+2510
ENCODING 9488
SWIDTH 8000 0
DWIDTH 8 0
BBX 8 16 0 0
BITMAP
00
00
00
00
00
00
00
F8
18
18
18
18
18
18
18
18
ENDCHAR
STARTCHAR U+2514
ENCODING 9492
SWIDTH 8000 0
DWIDTH 8 0
BBX 8 16 0 0
BITMAP
18
18
18
18
18
18
18
1F
00
00
00
00
00
00
00
00
ENDCHAR
STARTCHAR U+2534
ENCODING 9524
SWIDTH 8000 0
DWIDTH 8 0
BBX 8 16 0 0
BITMAP
18
18
18
18
18
18
18
FF
00
00
00
00
00
00
00
00
ENDCHAR
STARTCHAR U+252C
ENCODING 9516
SWIDTH 8000 0
DWIDTH 8 0
BBX 8 16 0 0
BITMAP
00
00
00
00
00
00
00
FF
18
18
18
18
18
18
18
18
ENDCHAR
STARTCHAR U+251C
ENCODING 9500
SWIDTH 8000 0
DWIDTH 8 0
BBX 8 16 0 0
BITMAP
18
18
18
18
18
18
18
1F
18
18
18
18
18
18
18
18
ENDCHAR
STARTCHAR U+2500
ENCODING 9472
SWIDTH 8000 0
DWIDTH 8 0
BBX 8 16 0 0
BITMAP
00
00
00
00
00
00
00
FF
00
00
00
00
00
00
00
00
ENDCHAR
STARTCHAR U+253C
ENCODING 9532
SWIDTH 8000 0
DWIDTH 8 0
BBX 8 16 0 0
BITMAP
18
18
18
18
18
18
18
FF
18
18
18
18
18
18
18
18
ENDCHAR
STARTCHAR U+255E
ENCODING 9566
SWIDTH 8000 0
DWIDTH 8 0
BBX 8 16 0 0
BITMAP
18
18
18
18
18
18
1F
18
1F
18
18
18
18
18
18
18
ENDCHAR
STARTCHAR U+255F
ENCODING 9567
SWIDTH 8000 0
DWIDTH 8 0
BBX 8 16 0 0
BITMAP
36
36
36
36
36
36
36
37
36
36
36
36
36
36
36
36
ENDCHAR
STARTCHAR U+255A
ENCODING 9562
SWIDTH 8000 0
DWIDTH 8 0
BBX 8 16 0 0
BITMAP
36
36
36
36
36
36
37
30
3F
00
00
00
00
00
00
00
ENDCHAR
STARTCHAR U+2554
ENCODING 9556
SWIDTH 8000 0
DWIDTH 8 0
BBX 8 16 0 0
BITMAP
00
00
00
00
00
00
3F
30
37
36
36
36
36
36
36
36
ENDCHAR
STARTCHAR U+2569
ENCODING 9577
SWIDTH 8000 0
DWIDTH 8 0
BBX 8 16 0 0
BITMAP
36
36
36
36
36
36
F7
00
FF
00
00
00
00
00
00
00
ENDCHAR
STARTCHAR U+2566
ENCODING 9574
SWIDTH 8000 0
DWIDTH 8 0
BBX 8 16 0 0
BITMAP
00
00
00
00
00
00
FF
00
F7
36
36
36
36
36
36
36
ENDCHAR
STARTCHAR U+2560
ENCODING 9568
SWIDTH 8000 0
DWIDTH 8 0
BBX 8 16 0 0
BITMAP
36
36
36
36
36
36
37
36
37
36
36
36
36
36
36
36
ENDCHAR
STARTCHAR U+2550
ENCODING 9552
SWIDTH 8000 0
DWIDTH 8 0
BBX 8 16 0 0
BITMAP
00
00
00
00
00
00
FF
00
FF
00
00
00
00
00
00
00
ENDCHAR
STARTCHAR U+256C
ENCODING 9580
SWIDTH 8000 0
DWIDTH 8 0
BBX 8 16 0 0
BITMAP
36
36
36
36
36
36
36
F7
36
36
36
36
36
36
36
36
ENDCHAR
STARTCHAR U+2567
ENCODING 9575
SWIDTH 8000 0
DWIDTH 8 0
BBX 8 16 0 0
BITMAP
18
18
18
18
18
18
FF
00
FF
00
00
00
00
00
00
00
ENDCHAR
STARTCHAR U+2568
ENCODING 9576
SWIDTH 8000 0
DWIDTH 8 0
BBX 8 16 0 0
BITMAP
36
36
36
36
36
36
36
FF
00
00
00
00
00
00
00
00
ENDCHAR
STARTCHAR U+2564
ENCODING 9572
SWIDTH 8000 0
DWIDTH 8 0
BBX 8 16 0 0
BITMAP
00
00
00
00
00
00
FF
00
FF
18
18
18
18
18
18
18
ENDCHAR
STARTCHAR U+2565
ENCODING 9573
SWIDTH 8000 0
DWIDTH 8 0
BBX 8 16 0 0
BITMAP
00
00
00
00
00
00
00
FF
36
36
36
36
36
36
36
36
ENDCHAR
STARTCHAR U+2559
ENCODING 9561
SWIDTH 8000 0
DWIDTH 8 0
BBX 8 16 0 0
BITMAP
36
36
36
36
36
36
36
3F
00
00
00
00
00
00
00
00
ENDCHAR
STARTCHAR U+2558
ENCODING 9560
SWIDTH 8000 0
DWIDTH 8 0
BBX 8 16 0 0
BITMAP
18
18
18
18
18
18
1F
18
1F
00
00
00
00
00
00
00
ENDCHAR
STARTCHAR U+2552
ENCODING 9554
SWIDTH 8000 0
DWIDTH 8 0
BBX 8 16 0 0
BITMAP
00
00
00
00
00
00
1F
18
1F
18
18
18
18
18
18
18
ENDCHAR
STARTCHAR U+2553
ENCODING 9555
SWIDTH 8000 0
DWIDTH 8 0
BBX 8 16 0 0
BITMAP
00
00
00
00
00
00
00
3F
36
36
36
36
36
36
36
36
ENDCHAR
STARTCHAR U+256B
ENCODING 9579
SWIDTH 8000 0
DWIDTH 8 0
BBX 8 16 0 0
BITMAP
36
36
36
36
36
36
36
F7
36
36
36
36
36
36
36
36
ENDCHAR
STARTCHAR U+256A
ENCODING 9578
SWIDTH 8000 0
DWIDTH 8 0
BBX 8 16 0 0
BITMAP
18
18
18
18
18
18
FF
00
FF
18
18
18
18
18
18
18
ENDCHAR
STARTCHAR U+2518
ENCODING 9496
SWIDTH 8000 0
DWIDTH 8 0
BBX 8 16 0 0
BITMAP
18
18
18
18
18
18
18
F8
00
00
00
00
00
00
00
00
ENDCHAR
STARTCHAR U+250C
ENCODING 9484
SWIDTH 8000 0
DWIDTH 8 0
BBX 8 16 0 0
BITMAP
00
00
00
00
00
00
00
1F
18
18
18
18
18
18
18
18
ENDCHAR
STARTCHAR U+2588
ENCODING 9608
SWIDTH 8000 0
DWIDTH 8 0
BBX 8 16 0 0
BITMAP
FF
FF
FF
FF
FF
FF
FF
FF
FF
FF
FF
FF
FF
FF
FF
FF
ENDCHAR
STARTCHAR U+2584
ENCODING 9604
SWIDTH 8000 0
DWIDTH 8 0
BBX 8 16 0 0
BITMAP
00
00
00
00
00
00
00
00
FF
FF
FF
FF
FF
FF
FF
FF
ENDCHAR
STARTCHAR U+258C
ENCODING 9612
SWIDTH 8000 0
DWIDTH 8 0
BBX 8 16 0 0
BITMAP
F0
F0
F0
F0
F0
F0
F0
F0
F0
F0
F0
F0
F0
F0
F0
F0
ENDCHAR
STARTCHAR U+2590
ENCODING 9616
SWIDTH 8000 0
DWIDTH 8 0
BBX 8 16 0 0
BITMAP
0F
0F
0F
0F
0F
0F
0F
0F
0F
0F
0F
0F
0F
0F
0F
0F
ENDCHAR
STARTCHAR U+2580
ENCODING 9600
SWIDTH 8000 0
DWIDTH 8 0
BBX 8 16 0 0
BITMAP
FF
FF
FF
FF
FF
FF
FF
FF
00
00
00
00
00
00
00
00
ENDCHAR
STARTCHAR U+03B1
ENCODING 945
SWIDTH 8000 0
DWIDTH 8 0
BBX 8 16 0 0
BITMAP
00
00
00
00
00
3B
6E
66
66
66
66
6E
3B
00
00
00
ENDCHAR
STARTCHAR U+00DF
ENCODING 223
SWIDTH 8000 0
DWIDTH 8 0
BBX 8 16 0 0
BITMAP
00
00
3C
66
66
66
66
7C
66
66
66
66
7C
60
60
60
ENDCHAR
STARTCHAR U+0393
ENCODING 915
SWIDTH 8000 0
DWIDTH 8 0
BBX 8 16 0 0
BITMAP
00
00
7F
63
63
60
60
60
60
60
60
60
60
00
00
00
ENDCHAR
STARTCHAR U+03C0
ENCODING 960
SWIDTH 8000 0
DWIDTH 8 0
BBX 8 16 0 0
BITMAP
00
00
00
00
00
7F
36
36
36
36
36
36
36
00
00
00
ENDCHAR
STARTCHAR U+03A3
ENCODING 931
SWIDTH 8000 0
DWIDTH 8 0
BBX 8 16 0 0
BITMAP
00
00
7F
63
31
18
0C
06
0C
18
31
63
7F
00
00
00
ENDCHAR
STARTCHAR U+03C3
ENCODING 963
SWIDTH 8000 0
DWIDTH 8 0
BBX 8 16 0 0
BITMAP
00
00
00
00
00
3F
6C
66
66
66
66
66
3C
00
00
00
ENDCHAR
STARTCHAR U+00B5
ENCODING 181
SWIDTH 8000 0
DWIDTH 8 0
BBX 8 16 0 0
BITMAP
00
00
00
00
00
66
66
66
66
66
66
76
7F
60
60
60
ENDCHAR
STARTCHAR U+03C4
ENCODING 964
SWIDTH 8000 0
DWIDTH 8 0
BBX 8 16 0 0
BITMAP
00
00
00
00
00
3F
6C
6C
0C
0C
0C
0C
0C
00
00
00
ENDCHAR
STARTCHAR U+03A6
ENCODING 934
SWIDTH 8000 0
DWIDTH 8 0
BBX 8 16 0 0
BITMAP
00
00
7E
18
3C
66
66
66
66
66
3C
18
7E
00
00
00
ENDCHAR
STARTCHAR U+0398
ENCODING 920
SWIDTH 8000 0
DWIDTH 8 0
BBX 8 16 0 0
BITMAP
00
00
3C
66
66
66
66
7E
66
66
66
66
3C
00
00
00
ENDCHAR
STARTCHAR U+03A9
ENCODING 937
SWIDTH 8000 0
DWIDTH 8 0
BBX 8 16 0 0
BITMAP
00
00
3E
63
63
63
63
63
77
36
36
36
77
00
00
00
ENDCHAR
STARTCHAR U+03B4
ENCODING 948
SWIDTH 8000 0
DWIDTH 8 0
BBX 8 16 0 0
BITMAP
00
00
0E
1B
1B
18
3C
66
66
66
66
66
3C
00
00
00
ENDCHAR
STARTCHAR U+221E
ENCODING 8734
SWIDTH 8000 0
DWIDTH 8 0
BBX 8 16 0 0
BITMAP
00
00
00
00
00
36
7F
6B
7F
36
00
00
00
00
00
00
ENDCHAR
STARTCHAR U+03C6
ENCODING 966
SWIDTH 8000 0
DWIDTH 8 0
BBX 8 16 0 0
BITMAP
00
00
06
06
1E
3E
67
6F
7F
7B
73
3E
3C
30
30
00
ENDCHAR
STARTCHAR U+03B5
ENCODING 949
SWIDTH 8000 0
DWIDTH 8 0
BBX 8 16 0 0
BITMAP
00
00
00
1F
30
60
60
7F
60
60
30
1F
00
00
00
00
ENDCHAR
STARTCHAR U+2229
ENCODING 8745
SWIDTH 8000 0
DWIDTH 8 0
BBX 8 16 0 0
BITMAP
00
00
3E
63
63
63
63
63
63
63
63
63
63
00
00
00
ENDCHAR
STARTCHAR U+2261
ENCODING 8801
SWIDTH 8000 0
DWIDTH 8 0
BBX 8 16 0 0
BITMAP
00
00
00
00
7F
00
00
7F
00
00
7F
00
00
00
00
00
ENDCHAR
STARTCHAR U+00B1
ENCODING 177
SWIDTH 8000 0
DWIDTH 8 0
BBX 8 16 0 0
BITMAP
00
00
00
00
18
18
18
FF
18
18
18
00
FF
00
00
00
ENDCHAR
STARTCHAR U+2265
ENCODING 8805
SWIDTH 8000 0
DWIDTH 8 0
BBX 8 16 0 0
BITMAP
00
00
60
30
18
0C
06
0C
18
30
60
00
7E
00
00
00
ENDCHAR
STARTCHAR U+2264
ENCODING 8804
SWIDTH 8000 0
DWIDTH 8 0
BBX 8 16 0 0
BITMAP
00
00
06
0C
18
30
60
30
18
0C
06
00
7E
00
00
00
ENDCHAR
STARTCHAR U+2320
ENCODING 8992
SWIDTH 8000 0
DWIDTH 8 0
BBX 8 16 0 0
BITMAP
00
00
0E
1B
18
18
18
18
18
18
18
18
18
18
18
18
ENDCHAR
STARTCHAR U+2321
ENCODING 8993
SWIDTH 8000 0
DWIDTH 8 0
BBX 8 16 0 0
BITMAP
18
18
18
18
18
18
18
18
18
18
18
D8
70
00
00
00
ENDCHAR
STARTCHAR U+00F7
ENCODING 247
SWIDTH 8000 0
DWIDTH 8 0
BBX 8 16 0 0
BITMAP
00
00
00
18
18
00
00
FF
00
00
18
18
00
00
00
00
ENDCHAR
STARTCHAR U+2248
ENCODING 8776
SWIDTH 8000 0
DWIDTH 8 0
BBX 8 16 0 0
BITMAP
00
00
00
00
70
DB
0E
70
DB
0E
00
00
00
00
00
00
ENDCHAR
STARTCHAR U+00B0
ENCODING 176
SWIDTH 8000 0
DWIDTH 8 0
BBX 8 16 0 0
BITMAP
00
00
1C
36
36
1C
00
00
00
00
00
00
00
00
00
00
ENDCHAR
STARTCHAR U+2219
ENCODING 8729
SWIDTH 8000 0
DWIDTH 8 0
BBX 8 16 0 0
BITMAP
00
00
00
00
00
1C
3E
3E
3E
1C
00
00
00
00
00
00
ENDCHAR
STARTCHAR U+00B7
ENCODING 183
SWIDTH 8000 0
DWIDTH 8 0
BBX 8 16 0 0
BITMAP
00
00
00
00
00
18
3C
3C
18
00
00
00
00
00
00
00
ENDCHAR
STARTCHAR U+221A
ENCODING 8730
SWIDTH 8000 0
DWIDTH 8 0
BBX 8 16 0 0
BITMAP
00
0F
0C
0C
0C
0C
0C
0C
CC
6C
3C
1C
0C
00
00
00
ENDCHAR
STARTCHAR U+207F
ENCODING 8319
SWIDTH 8000 0
DWIDTH 8 0
BBX 8 16 0 0
BITMAP
00
7C
66
66
66
66
66
00
00
00
00
00
00
00
00
00
ENDCHAR
STARTCHAR U+00B2
ENCODING 178
SWIDTH 8000 0
DWIDTH 8 0
BBX 8 16 0 0
BITMAP
00
38
6C
0C
18
30
7C
00
00
00
00
00
00
00
00
00
ENDCHAR
STARTCHAR U+25A0
ENCODING 9632
SWIDTH 8000 0
DWIDTH 8 0
BBX 8 16 0 0
BITMAP
00
00
00
00
7E
7E
7E
7E
7E
7E
7E
00
00
00
00
00
ENDCHAR
STARTCHAR U+00A0
ENCODING 160
SWIDTH 8000 0
DWIDTH 8 0
BBX 8 16 0 0
BITMAP
00
00
00
00
00
00
00
00
00
00
00
00
00
00
00
00
ENDCHAR
STARTCHAR U+F600
ENCODING 62976
SWIDTH 16000 0
DWIDTH 16 0
BBX 16 16 0 0
BITMAP
0000
0000
0000
0000
0000
0000
0000
0000
0000
0000
0000
0000
0000
0000
0000
0000
ENDCHAR
STARTCHAR U+F601
ENCODING 62977
SWIDTH 16000 0
DWIDTH 16 0
BBX 16 16 0 0
BITMAP
0000
7F00
0300
0300
0300
0300
0000
0000
0000
0000
0000
0000
0000
0000
0000
0000
ENDCHAR
STARTCHAR U+F602
ENCODING 62978
SWIDTH 16000 0
DWIDTH 16 0
BBX 16 16 0 0
BITMAP
0000
7F00
1B00
1B00
1B00
1B00
0000
0000
0000
0000
0000
0000
0000
0000
0000
0000
ENDCHAR
STARTCHAR U+F603
ENCODING 62979
SWIDTH 16000 0
DWIDTH 16 0
BBX 16 16 0 0
BITMAP
0000
6000
6000
6000
6000
7F00
0000
0000
0000
0000
0000
0000
0000
0000
0000
0000
ENDCHAR
STARTCHAR U+F604
ENCODING 62980
SWIDTH 16000 0
DWIDTH 16 0
BBX 16 16 0 0
BITMAP
0000
7F00
6000
6000
6000
7F00
0000
0000
0000
0000
0000
0000
0000
0000
0000
0000
ENDCHAR
STARTCHAR U+F605
ENCODING 62981
SWIDTH 16000 0
DWIDTH 16 0
BBX 16 16 0 0
BITMAP
0000
7F00
6C00
6C00
6C00
7F00
0000
0000
0000
0000
0000
0000
0000
0000
0000
0000
ENDCHAR
STARTCHAR U+F606
ENCODING 62982
SWIDTH 16000 0
DWIDTH 16 0
BBX 16 16 0 0
BITMAP
0000
7F00
0300
7F00
6000
7F00
0000
0000
0000
0000
0000
0000
0000
0000
0000
0000
ENDCHAR
STARTCHAR U+F607
ENCODING 62983
SWIDTH 16000 0
DWIDTH 16 0
BBX 16 16 0 0
BITMAP
0000
7F00
6300
6300
6300
7F00
0000
0000
0000
0000
0000
0000
0000
0000
0000
0000
ENDCHAR
STARTCHAR U+F608
ENCODING 62984
SWIDTH 16000 0
DWIDTH 16 0
BBX 16 16 0 0
BITMAP
0000
6300
6300
7F00
6300
7F00
0000
0000
0000
0000
0000
0000
0000
0000
0000
0000
ENDCHAR
STARTCHAR U+F609
ENCODING 62985
SWIDTH 16000 0
DWIDTH 16 0
BBX 16 16 0 0
BITMAP
0000
6D80
6D80
7F80
6D80
7F80
0000
0000
0000
0000
0000
0000
0000
0000
0000
0000
ENDCHAR
STARTCHAR U+F60A
ENCODING 62986
SWIDTH 16000 0
DWIDTH 16 0
BBX 16 16 0 0
BITMAP
0000
0800
1C00
3600
6300
C180
0000
0000
0000
0000
0000
0000
0000
0000
0000
0000
ENDCHAR
STARTCHAR U+F60B
ENCODING 62987
SWIDTH 16000 0
DWIDTH 16 0
BBX 16 16 0 0
BITMAP
0000
0900
1B00
3F00
6D80
D8C0
0000
0000
0000
0000
0000
0000
0000
0000
0000
0000
ENDCHAR
STARTCHAR U+F60C
ENCODING 62988
SWIDTH 16000 0
DWIDTH 16 0
BBX 16 16 0 0
BITMAP
0000
3E00
6300
6300
6300
3E00
0000
0000
0000
0000
0000
0000
0000
0000
0000
0000
ENDCHAR
STARTCHAR U+F60D
ENCODING 62989
SWIDTH 16000 0
DWIDTH 16 0
BBX 16 16 0 0
BITMAP
0000
7F80
0C00
1E00
3300
6180
0000
0000
0000
0000
0000
0000
0000
0000
0000
0000
ENDCHAR
STARTCHAR U+F60E
ENCODING 62990
SWIDTH 16000 0
DWIDTH 16 0
BBX 16 16 0 0
BITMAP
0000
7F80
1200
3F00
6D80
D8C0
0000
0000
0000
0000
0000
0000
0000
0000
0000
0000
ENDCHAR
STARTCHAR U+F60F
ENCODING 62991
SWIDTH 16000 0
DWIDTH 16 0
BBX 16 16 0 0
BITMAP
0000
0C00
7F80
0C00
1E00
3300
6180
0000
0000
0000
0000
0000
0000
0000
0000
0000
ENDCHAR
STARTCHAR U+F610
ENCODING 62992
SWIDTH 16000 0
DWIDTH 16 0
BBX 16 16 0 0
BITMAP
0000
7F00
0300
3F00
0300
0300
0000
0000
0000
0000
0000
0000
0000
0000
0000
0000
ENDCHAR
STARTCHAR U+F611
ENCODING 62993
SWIDTH 16000 0
DWIDTH 16 0
BBX 16 16 0 0
BITMAP
0000
7F00
6000
7E00
6000
7F00
0000
0000
0000
0000
0000
0000
0000
0000
0000
0000
ENDCHAR
STARTCHAR U+F612
ENCODING 62994
SWIDTH 16000 0
DWIDTH 16 0
BBX 16 16 0 0
BITMAP
0000
7F00
3600
3600
3600
7F00
0000
0000
0000
0000
0000
0000
0000
0000
0000
0000
ENDCHAR
STARTCHAR U+F613
ENCODING 62995
SWIDTH 16000 0
DWIDTH 16 0
BBX 16 16 0 0
BITMAP
0C00
7F80
1E00
3300
3300
1E00
0000
0000
0000
0000
0000
0000
0000
0000
0000
0000
ENDCHAR
STARTCHAR U+F614
ENCODING 62996
SWIDTH 16000 0
DWIDTH 16 0
BBX 16 16 0 0
BITMAP
0000
0000
0000
0000
0000
0000
0000
0000
0000
0000
0000
0000
0000
0000
0000
0000
ENDCHAR
STARTCHAR U+F615
ENCODING 62997
SWIDTH 16000 0
DWIDTH 16 0
BBX 16 16 0 0
BITMAP
0000
7F00
0300
0300
0300
0300
0000
0000
0000
0000
0000
0000
0000
0000
0000
0000
ENDCHAR
STARTCHAR U+F616
ENCODING 62998
SWIDTH 16000 0
DWIDTH 16 0
BBX 16 16 0 0
BITMAP
0000
7F00
1B00
1B00
1B00
1B00
0000
0000
0000
0000
0000
0000
0000
0000
0000
0000
ENDCHAR
STARTCHAR U+F617
ENCODING 62999
SWIDTH 16000 0
DWIDTH 16 0
BBX 16 16 0 0
BITMAP
0000
6000
6000
6000
6000
7F00
0000
0000
0000
0000
0000
0000
0000
0000
0000
0000
ENDCHAR
STARTCHAR U+F618
ENCODING 63000
SWIDTH 16000 0
DWIDTH 16 0
BBX 16 16 0 0
BITMAP
0000
7F00
6000
6000
6000
7F00
0000
0000
0000
0000
0000
0000
0000
0000
0000
0000
ENDCHAR
STARTCHAR U+F619
ENCODING 63001
SWIDTH 16000 0
DWIDTH 16 0
BBX 16 16 0 0
BITMAP
0000
7F00
6C00
6C00
6C00
7F00
0000
0000
0000
0000
0000
0000
0000
0000
0000
0000
ENDCHAR
STARTCHAR U+F61A
ENCODING 63002
SWIDTH 16000 0
DWIDTH 16 0
BBX 16 16 0 0
BITMAP
0000
7F00
0300
7F00
6000
7F00
0000
0000
0000
0000
0000
0000
0000
0000
0000
0000
ENDCHAR
STARTCHAR U+F61B
ENCODING 63003
SWIDTH 16000 0
DWIDTH 16 0
BBX 16 16 0 0
BITMAP
0000
7F00
6300
6300
6300
7F00
0000
0000
0000
0000
0000
0000
0000
0000
0000
0000
ENDCHAR
STARTCHAR U+F61C
ENCODING 63004
SWIDTH 16000 0
DWIDTH 16 0
BBX 16 16 0 0
BITMAP
0000
6300
6300
7F00
6300
7F00
0000
0000
0000
0000
0000
0000
0000
0000
0000
0000
ENDCHAR
STARTCHAR U+F61D
ENCODING 63005
SWIDTH 16000 0
DWIDTH 16 0
BBX 16 16 0 0
BITMAP
0000
6D80
6D80
7F80
6D80
7F80
0000
0000
0000
0000
0000
0000
0000
0000
0000
0000
ENDCHAR
STARTCHAR U+F61E
ENCODING 63006
SWIDTH 16000 0
DWIDTH 16 0
BBX 16 16 0 0
BITMAP
0000
0800
1C00
3600
6300
C180
0000
0000
0000
0000
0000
0000
0000
0000
0000
0000
ENDCHAR
STARTCHAR U+F61F
ENCODING 63007
SWIDTH 16000 0
DWIDTH 16 0
BBX 16 16 0 0
BITMAP
0000
0900
1B00
3F00
6D80
D8C0
0000
0000
0000
0000
0000
0000
0000
0000
0000
0000
ENDCHAR
STARTCHAR U+F620
ENCODING 63008
SWIDTH 16000 0
DWIDTH 16 0
BBX 16 16 0 0
BITMAP
0000
3E00
6300
6300
6300
3E00
0000
0000
0000
0000
0000
0000
0000
0000
0000
0000
ENDCHAR
STARTCHAR U+F621
ENCODING 63009
SWIDTH 16000 0
DWIDTH 16 0
BBX 16 16 0 0
BITMAP
0000
7F80
0C00
1E00
3300
6180
0000
0000
0000
0000
0000
0000
0000
0000
0000
0000
ENDCHAR
STARTCHAR U+F622
ENCODING 63010
SWIDTH 16000 0
DWIDTH 16 0
BBX 16 16 0 0
BITMAP
0000
7F80
1200
3F00
6D80
D8C0
0000
0000
0000
0000
0000
0000
0000
0000
0000
0000
ENDCHAR
STARTCHAR U+F623
ENCODING 63011
SWIDTH 16000 0
DWIDTH 16 0
BBX 16 16 0 0
BITMAP
0000
0C00
7F80
0C00
1E00
3300
6180
0000
0000
0000
0000
0000
0000
0000
0000
0000
ENDCHAR
STARTCHAR U+F624
ENCODING 63012
SWIDTH 16000 0
DWIDTH 16 0
BBX 16 16 0 0
BITMAP
0000
7F00
0300
3F00
0300
0300
0000
0000
0000
0000
0000
0000
0000
0000
0000
0000
ENDCHAR
STARTCHAR U+F625
ENCODING 63013
SWIDTH 16000 0
DWIDTH 16 0
BBX 16 16 0 0
BITMAP
0000
7F00
6000
7E00
6000
7F00
0000
0000
0000
0000
0000
0000
0000
0000
0000
0000
ENDCHAR
STARTCHAR U+F626
ENCODING 63014
SWIDTH 16000 0
DWIDTH 16 0
BBX 16 16 0 0
BITMAP
0000
7F00
3600
3600
3600
7F00
0000
0000
0000
0000
0000
0000
0000
0000
0000
0000
ENDCHAR
STARTCHAR U+F627
ENCODING 63015
SWIDTH 16000 0
DWIDTH 16 0
BBX 16 16 0 0
BITMAP
0C00
7F80
1E00
3300
3300
1E00
0000
0000
0000
0000
0000
0000
0000
0000
0000
0000
ENDCHAR
STARTCHAR U+F628
ENCODING 63016
SWIDTH 16000 0
DWIDTH 16 0
BBX 16 16 0 0
BITMAP
0000
0000
0000
0000
0000
0000
0000
0000
0000
0000
0000
0000
0000
0000
0000
0000
ENDCHAR
STARTCHAR U+F629
ENCODING 63017
SWIDTH 16000 0
DWIDTH 16 0
BBX 16 16 0 0
BITMAP
0000
7F00
0300
0300
0300
0300
0000
0000
0000
0000
0000
0000
0000
0000
0000
0000
ENDCHAR
STARTCHAR U+F62A
ENCODING 63018
SWIDTH 16000 0
DWIDTH 16 0
BBX 16 16 0 0
BITMAP
0000
7F00
1B00
1B00
1B00
1B00
0000
0000
0000
0000
0000
0000
0000
0000
0000
0000
ENDCHAR
STARTCHAR U+F62B
ENCODING 63019
SWIDTH 16000 0
DWIDTH 16 0
BBX 16 16 0 0
BITMAP
0000
6000
6000
6000
6000
7F00
0000
0000
0000
0000
0000
0000
0000
0000
0000
0000
ENDCHAR
STARTCHAR U+F62C
ENCODING 63020
SWIDTH 16000 0
DWIDTH 16 0
BBX 16 16 0 0
BITMAP
0000
7F00
6000
6000
6000
7F00
0000
0000
0000
0000
0000
0000
0000
0000
0000
0000
ENDCHAR
STARTCHAR U+F62D
ENCODING 63021
SWIDTH 16000 0
DWIDTH 16 0
BBX 16 16 0 0
BITMAP
0000
7F00
6C00
6C00
6C00
7F00
0000
0000
0000
0000
0000
0000
0000
0000
0000
0000
ENDCHAR
STARTCHAR U+F62E
ENCODING 63022
SWIDTH 16000 0
DWIDTH 16 0
BBX 16 16 0 0
BITMAP
0000
7F00
0300
7F00
6000
7F00
0000
0000
0000
0000
0000
0000
0000
0000
0000
0000
ENDCHAR
STARTCHAR U+F62F
ENCODING 63023
SWIDTH 16000 0
DWIDTH 16 0
BBX 16 16 0 0
BITMAP
0000
7F00
6300
6300
6300
7F00
0000
0000
0000
0000
0000
0000
0000
0000
0000
0000
ENDCHAR
STARTCHAR U+F630
ENCODING 63024
SWIDTH 16000 0
DWIDTH 16 0
BBX 16 16 0 0
BITMAP
0000
6300
6300
7F00
6300
7F00
0000
0000
0000
0000
0000
0000
0000
0000
0000
0000
ENDCHAR
STARTCHAR U+F631
ENCODING 63025
SWIDTH 16000 0
DWIDTH 16 0
BBX 16 16 0 0
BITMAP
0000
6D80
6D80
7F80
6D80
7F80
0000
0000
0000
0000
0000
0000
0000
0000
0000
0000
ENDCHAR
STARTCHAR U+F632
ENCODING 63026
SWIDTH 16000 0
DWIDTH 16 0
BBX 16 16 0 0
BITMAP
0000
0800
1C00
3600
6300
C180
0000
0000
0000
0000
0000
0000
0000
0000
0000
0000
ENDCHAR
STARTCHAR U+F633
ENCODING 63027
SWIDTH 16000 0
DWIDTH 16 0
BBX 16 16 0 0
BITMAP
0000
0900
1B00
3F00
6D80
D8C0
0000
0000
0000
0000
0000
0000
0000
0000
0000
0000
ENDCHAR
STARTCHAR U+F634
ENCODING 63028
SWIDTH 16000 0
DWIDTH 16 0
BBX 16 16 0 0
BITMAP
0000
3E00
6300
6300
6300
3E00
0000
0000
0000
0000
0000
0000
0000
0000
0000
0000
ENDCHAR
STARTCHAR U+F635
ENCODING 63029
SWIDTH 16000 0
DWIDTH 16 0
BBX 16 16 0 0
BITMAP
0000
7F80
0C00
1E00
3300
6180
0000
0000
0000
0000
0000
0000
0000
0000
0000
0000
ENDCHAR
STARTCHAR U+F636
ENCODING 63030
SWIDTH 16000 0
DWIDTH 16 0
BBX 16 16 0 0
BITMAP
0000
7F80
1200
3F00
6D80
D8C0
0000
0000
0000
0000
0000
0000
0000
0000
0000
0000
ENDCHAR
STARTCHAR U+F637
ENCODING 63031
SWIDTH 16000 0
DWIDTH 16 0
BBX 16 16 0 0
BITMAP
0000
0C00
7F80
0C00
1E00
3300
6180
0000
0000
0000
0000
0000
0000
0000
0000
0000
ENDCHAR
STARTCHAR U+F638
ENCODING 63032
SWIDTH 16000 0
DWIDTH 16 0
BBX 16 16 0 0
BITMAP
0000
7F00
0300
3F00
0300
0300
0000
0000
0000
0000
0000
0000
0000
0000
0000
0000
ENDCHAR
STARTCHAR U+F639
ENCODING 63033
SWIDTH 16000 0
DWIDTH 16 0
BBX 16 16 0 0
BITMAP
0000
7F00
6000
7E00
6000
7F00
0000
0000
0000
0000
0000
0000
0000
0000
0000
0000
ENDCHAR
STARTCHAR U+F63A
ENCODING 63034
SWIDTH 16000 0
DWIDTH 16 0
BBX 16 16 0 0
BITMAP
0000
7F00
3600
3600
3600
7F00
0000
0000
0000
0000
0000
0000
0000
0000
0000
0000
ENDCHAR
STARTCHAR U+F63B
ENCODING 63035
SWIDTH 16000 0
DWIDTH 16 0
BBX 16 16 0 0
BITMAP
0C00
7F80
1E00
3300
3300
1E00
0000
0000
0000
0000
0000
0000
0000
0000
0000
0000
ENDCHAR
STARTCHAR U+F63C
ENCODING 63036
SWIDTH 16000 0
DWIDTH 16 0
BBX 16 16 0 0
BITMAP
0000
0000
0000
0000
0000
0000
0000
0000
0000
0000
0000
0000
0000
0000
0000
0000
ENDCHAR
STARTCHAR U+F63D
ENCODING 63037
SWIDTH 16000 0
DWIDTH 16 0
BBX 16 16 0 0
BITMAP
0000
7F00
0300
0300
0300
0300
0000
0000
0000
0000
0000
0000
0000
0000
0000
0000
ENDCHAR
STARTCHAR U+F63E
ENCODING 63038
SWIDTH 16000 0
DWIDTH 16 0
BBX 16 16 0 0
BITMAP
0000
7F00
1B00
1B00
1B00
1B00
0000
0000
0000
0000
0000
0000
0000
0000
0000
0000
ENDCHAR
STARTCHAR U+F63F
ENCODING 63039
SWIDTH 16000 0
DWIDTH 16 0
BBX 16 16 0 0
BITMAP
0000
6000
6000
6000
6000
7F00
0000
0000
0000
0000
0000
0000
0000
0000
0000
0000
ENDCHAR
STARTCHAR U+F640
ENCODING 63040
SWIDTH 16000 0
DWIDTH 16 0
BBX 16 16 0 0
BITMAP
0000
7F00
6000
6000
6000
7F00
0000
0000
0000
0000
0000
0000
0000
0000
0000
0000
ENDCHAR
STARTCHAR U+F641
ENCODING 63041
SWIDTH 16000 0
DWIDTH 16 0
BBX 16 16 0 0
BITMAP
0000
7F00
6C00
6C00
6C00
7F00
0000
0000
0000
0000
0000
0000
0000
0000
0000
0000
ENDCHAR
STARTCHAR U+F642
ENCODING 63042
SWIDTH 16000 0
DWIDTH 16 0
BBX 16 16 0 0
BITMAP
0000
7F00
0300
7F00
6000
7F00
0000
0000
0000
0000
0000
0000
0000
0000
0000
0000
ENDCHAR
STARTCHAR U+F643
ENCODING 63043
SWIDTH 16000 0
DWIDTH 16 0
BBX 16 16 0 0
BITMAP
0000
7F00
6300
6300
6300
7F00
0000
0000
0000
0000
0000
0000
0000
0000
0000
0000
ENDCHAR
STARTCHAR U+F644
ENCODING 63044
SWIDTH 16000 0
DWIDTH 16 0
BBX 16 16 0 0
BITMAP
0000
6300
6300
7F00
6300
7F00
0000
0000
0000
0000
0000
0000
0000
0000
0000
0000
ENDCHAR
STARTCHAR U+F645
ENCODING 63045
SWIDTH 16000 0
DWIDTH 16 0
BBX 16 16 0 0
BITMAP
0000
6D80
6D80
7F80
6D80
7F80
0000
0000
0000
0000
0000
0000
0000
0000
0000
0000
ENDCHAR
STARTCHAR U+F646
ENCODING 63046
SWIDTH 16000 0
DWIDTH 16 0
BBX 16 16 0 0
BITMAP
0000
0800
1C00
3600
6300
C180
0000
0000
0000
0000
0000
0000
0000
0000
0000
0000
ENDCHAR
STARTCHAR U+F647
ENCODING 63047
SWIDTH 16000 0
DWIDTH 16 0
BBX 16 16 0 0
BITMAP
0000
0900
1B00
3F00
6D80
D8C0
0000
0000
0000
0000
0000
0000
0000
0000
0000
0000
ENDCHAR
STARTCHAR U+F648
ENCODING 63048
SWIDTH 16000 0
DWIDTH 16 0
BBX 16 16 0 0
BITMAP
0000
3E00
6300
6300
6300
3E00
0000
0000
0000
0000
0000
0000
0000
0000
0000
0000
ENDCHAR
STARTCHAR U+F649
ENCODING 63049
SWIDTH 16000 0
DWIDTH 16 0
BBX 16 16 0 0
BITMAP
0000
7F80
0C00
1E00
3300
6180
0000
0000
0000
0000
0000
0000
0000
0000
0000
0000
ENDCHAR
STARTCHAR U+F64A
ENCODING 63050
SWIDTH 16000 0
DWIDTH 16 0
BBX 16 16 0 0
BITMAP
0000
7F80
1200
3F00
6D80
D8C0
0000
0000
0000
0000
0000
0000
0000
0000
0000
0000
ENDCHAR
STARTCHAR U+F64B
ENCODING 63051
SWIDTH 16000 0
DWIDTH 16 0
BBX 16 16 0 0
BITMAP
0000
0C00
7F80
0C00
1E00
3300
6180
0000
0000
0000
0000
0000
0000
0000
0000
0000
ENDCHAR
STARTCHAR U+F64C
ENCODING 63052
SWIDTH 16000 0
DWIDTH 16 0
BBX 16 16 0 0
BITMAP
0000
7F00
0300
3F00
0300
0300
0000
0000
0000
0000
0000
0000
0000
0000
0000
0000
ENDCHAR
STARTCHAR U+F64D
ENCODING 63053
SWIDTH 16000 0
DWIDTH 16 0
BBX 16 16 0 0
BITMAP
0000
7F00
6000
7E00
6000
7F00
0000
0000
0000
0000
0000
0000
0000
0000
0000
0000
ENDCHAR
STARTCHAR U+F64E
ENCODING 63054
SWIDTH 16000 0
DWIDTH 16 0
BBX 16 16 0 0
BITMAP
0000
7F00
3600
3600
3600
7F00
0000
0000
0000
0000
0000
0000
0000
0000
0000
0000
ENDCHAR
STARTCHAR U+F64F
ENCODING 63055
SWIDTH 16000 0
DWIDTH 16 0
BBX 16 16 0 0
BITMAP
0C00
7F80
1E00
3300
3300
1E00
0000
0000
0000
0000
0000
0000
0000
0000
0000
0000
ENDCHAR
STARTCHAR U+F650
ENCODING 63056
SWIDTH 16000 0
DWIDTH 16 0
BBX 16 16 0 0
BITMAP
0000
0000
0000
0000
0000
0000
0000
0000
0000
0000
0000
0000
0000
0000
0000
0000
ENDCHAR
STARTCHAR U+F651
ENCODING 63057
SWIDTH 16000 0
DWIDTH 16 0
BBX 16 16 0 0
BITMAP
0000
7F00
0300
0300
0300
0300
0000
0000
0000
0000
0000
0000
0000
0000
0000
0000
ENDCHAR
STARTCHAR U+F652
ENCODING 63058
SWIDTH 16000 0
DWIDTH 16 0
BBX 16 16 0 0
BITMAP
0000
7F00
1B00
1B00
1B00
1B00
0000
0000
0000
0000
0000
0000
0000
0000
0000
0000
ENDCHAR
STARTCHAR U+F653
ENCODING 63059
SWIDTH 16000 0
DWIDTH 16 0
BBX 16 16 0 0
BITMAP
0000
6000
6000
6000
6000
7F00
0000
0000
0000
0000
0000
0000
0000
0000
0000
0000
ENDCHAR
STARTCHAR U+F654
ENCODING 63060
SWIDTH 16000 0
DWIDTH 16 0
BBX 16 16 0 0
BITMAP
0000
7F00
6000
6000
6000
7F00
0000
0000
0000
0000
0000
0000
0000
0000
0000
0000
ENDCHAR
STARTCHAR U+F655
ENCODING 63061
SWIDTH 16000 0
DWIDTH 16 0
BBX 16 16 0 0
BITMAP
0000
7F00
6C00
6C00
6C00
7F00
0000
0000
0000
0000
0000
0000
0000
0000
0000
0000
ENDCHAR
STARTCHAR U+F656
ENCODING 63062
SWIDTH 16000 0
DWIDTH 16 0
BBX 16 16 0 0
BITMAP
0000
7F00
0300
7F00
6000
7F00
0000
0000
0000
0000
0000
0000
0000
0000
0000
0000
ENDCHAR
STARTCHAR U+F657
ENCODING 63063
SWIDTH 16000 0
DWIDTH 16 0
BBX 16 16 0 0
BITMAP
0000
7F00
6300
6300
6300
7F00
0000
0000
0000
0000
0000
0000
0000
0000
0000
0000
ENDCHAR
STARTCHAR U+F658
ENCODING 63064
SWIDTH 16000 0
DWIDTH 16 0
BBX 16 16 0 0
BITMAP
0000
6300
6300
7F00
6300
7F00
0000
0000
0000
0000
0000
0000
0000
0000
0000
0000
ENDCHAR
STARTCHAR U+F659
ENCODING 63065
SWIDTH 16000 0
DWIDTH 16 0
BBX 16 16 0 0
BITMAP
0000
6D80
6D80
7F80
6D80
7F80
0000
0000
0000
0000
0000
0000
0000
0000
0000
0000
ENDCHAR
STARTCHAR U+F65A
ENCODING 63066
SWIDTH 16000 0
DWIDTH 16 0
BBX 16 16 0 0
BITMAP
0000
0800
1C00
3600
6300
C180
0000
0000
0000
0000
0000
0000
0000
0000
0000
0000
ENDCHAR
STARTCHAR U+F65B
ENCODING 63067
SWIDTH 16000 0
DWIDTH 16 0
BBX 16 16 0 0
BITMAP
0000
0900
1B00
3F00
6D80
D8C0
0000
0000
0000
0000
0000
0000
0000
0000
0000
0000
ENDCHAR
STARTCHAR U+F65C
ENCODING 63068
SWIDTH 16000 0
DWIDTH 16 0
BBX 16 16 0 0
BITMAP
0000
3E00
6300
6300
6300
3E00
0000
0000
0000
0000
0000
0000
0000
0000
0000
0000
ENDCHAR
STARTCHAR U+F65D
ENCODING 63069
SWIDTH 16000 0
DWIDTH 16 0
BBX 16 16 0 0
BITMAP
0000
7F80
0C00
1E00
3300
6180
0000
0000
0000
0000
0000
0000
0000
0000
0000
0000
ENDCHAR
STARTCHAR U+F65E
ENCODING 63070
SWIDTH 16000 0
DWIDTH 16 0
BBX 16 16 0 0
BITMAP
0000
7F80
1200
3F00
6D80
D8C0
0000
0000
0000
0000
0000
0000
0000
0000
0000
0000
ENDCHAR
STARTCHAR U+F65F
ENCODING 63071
SWIDTH 16000 0
DWIDTH 16 0
BBX 16 16 0 0
BITMAP
0000
0C00
7F80
0C00
1E00
3300
6180
0000
0000
0000
0000
0000
0000
0000
0000
0000
ENDCHAR
STARTCHAR U+F660
ENCODING 63072
SWIDTH 16000 0
DWIDTH 16 0
BBX 16 16 0 0
BITMAP
0000
7F00
0300
3F00
0300
0300
0000
0000
0000
0000
0000
0000
0000
0000
0000
0000
ENDCHAR
STARTCHAR U+F661
ENCODING 63073
SWIDTH 16000 0
DWIDTH 16 0
BBX 16 16 0 0
BITMAP
0000
7F00
6000
7E00
6000
7F00
0000
0000
0000
0000
0000
0000
0000
0000
0000
0000
ENDCHAR
STARTCHAR U+F662
ENCODING 63074
SWIDTH 16000 0
DWIDTH 16 0
BBX 16 16 0 0
BITMAP
0000
7F00
3600
3600
3600
7F00
0000
0000
0000
0000
0000
0000
0000
0000
0000
0000
ENDCHAR
STARTCHAR U+F663
ENCODING 63075
SWIDTH 16000 0
DWIDTH 16 0
BBX 16 16 0 0
BITMAP
0C00
7F80
1E00
3300
3300
1E00
0000
0000
0000
0000
0000
0000
0000
0000
0000
0000
ENDCHAR
STARTCHAR U+F664
ENCODING 63076
SWIDTH 16000 0
DWIDTH 16 0
BBX 16 16 0 0
BITMAP
0000
0000
0000
0000
0000
0000
0000
0000
0000
0000
0000
0000
0000
0000
0000
0000
ENDCHAR
STARTCHAR U+F665
ENCODING 63077
SWIDTH 16000 0
DWIDTH 16 0
BBX 16 16 0 0
BITMAP
0000
7F00
0300
0300
0300
0300
0000
0000
0000
0000
0000
0000
0000
0000
0000
0000
ENDCHAR
STARTCHAR U+F666
ENCODING 63078
SWIDTH 16000 0
DWIDTH 16 0
BBX 16 16 0 0
BITMAP
0000
7F00
1B00
1B00
1B00
1B00
0000
0000
0000
0000
0000
0000
0000
0000
0000
0000
ENDCHAR
STARTCHAR U+F667
ENCODING 63079
SWIDTH 16000 0
DWIDTH 16 0
BBX 16 16 0 0
BITMAP
0000
6000
6000
6000
6000
7F00
0000
0000
0000
0000
0000
0000
0000
0000
0000
0000
ENDCHAR
STARTCHAR U+F668
ENCODING 63080
SWIDTH 16000 0
DWIDTH 16 0
BBX 16 16 0 0
BITMAP
0000
7F00
6000
6000
6000
7F00
0000
0000
0000
0000
0000
0000
0000
0000
0000
0000
ENDCHAR
STARTCHAR U+F669
ENCODING 63081
SWIDTH 16000 0
DWIDTH 16 0
BBX 16 16 0 0
BITMAP
0000
7F00
6C00
6C00
6C00
7F00
0000
0000
0000
0000
0000
0000
0000
0000
0000
0000
ENDCHAR
STARTCHAR U+F66A
ENCODING 63082
SWIDTH 16000 0
DWIDTH 16 0
BBX 16 16 0 0
BITMAP
0000
7F00
0300
7F00
6000
7F00
0000
0000
0000
0000
0000
0000
0000
0000
0000
0000
ENDCHAR
STARTCHAR U+F66B
ENCODING 63083
SWIDTH 16000 0
DWIDTH 16 0
BBX 16 16 0 0
BITMAP
0000
7F00
6300
6300
6300
7F00
0000
0000
0000
0000
0000
0000
0000
0000
0000
0000
ENDCHAR
STARTCHAR U+F66C
ENCODING 63084
SWIDTH 16000 0
DWIDTH 16 0
BBX 16 16 0 0
BITMAP
0000
6300
6300
7F00
6300
7F00
0000
0000
0000
0000
0000
0000
0000
0000
0000
0000
ENDCHAR
STARTCHAR U+F66D
ENCODING 63085
SWIDTH 16000 0
DWIDTH 16 0
BBX 16 16 0 0
BITMAP
0000
6D80
6D80
7F80
6D80
7F80
0000
0000
0000
0000
0000
0000
0000
0000
0000
0000
ENDCHAR
STARTCHAR U+F66E
ENCODING 63086
SWIDTH 16000 0
DWIDTH 16 0
BBX 16 16 0 0
BITMAP
0000
0800
1C00
3600
6300
C180
0000
0000
0000
0000
0000
0000
0000
0000
0000
0000
ENDCHAR
STARTCHAR U+F66F
ENCODING 63087
SWIDTH 16000 0
DWIDTH 16 0
BBX 16 16 0 0
BITMAP
0000
0900
1B00
3F00
6D80
D8C0
0000
0000
0000
0000
0000
0000
0000
0000
0000
0000
ENDCHAR
STARTCHAR U+F670
ENCODING 63088
SWIDTH 16000 0
DWIDTH 16 0
BBX 16 16 0 0
BITMAP
0000
3E00
6300
6300
6300
3E00
0000
0000
0000
0000
0000
0000
0000
0000
0000
0000
ENDCHAR
STARTCHAR U+F671
ENCODING 63089
SWIDTH 16000 0
DWIDTH 16 0
BBX 16 16 0 0
BITMAP
0000
7F80
0C00
1E00
3300
6180
0000
0000
0000
0000
0000
0000
0000
0000
0000
0000
ENDCHAR
STARTCHAR U+F672
ENCODING 63090
SWIDTH 16000 0
DWIDTH 16 0
BBX 16 16 0 0
BITMAP
0000
7F80
1200
3F00
6D80
D8C0
0000
0000
0000
0000
0000
0000
0000
0000
0000
0000
ENDCHAR
STARTCHAR U+F673
ENCODING 63091
SWIDTH 16000 0
DWIDTH 16 0
BBX 16 16 0 0
BITMAP
0000
0C00
7F80
0C00
1E00
3300
6180
0000
0000
0000
0000
0000
0000
0000
0000
0000
ENDCHAR
STARTCHAR U+F674
ENCODING 63092
SWIDTH 16000 0
DWIDTH 16 0
BBX 16 16 0 0
BITMAP
0000
7F00
0300
3F00
0300
0300
0000
0000
0000
0000
0000
0000
0000
0000
0000
0000
ENDCHAR
STARTCHAR U+F675
ENCODING 63093
SWIDTH 16000 0
DWIDTH 16 0
BBX 16 16 0 0
BITMAP
0000
7F00
6000
7E00
6000
7F00
0000
0000
0000
0000
0000
0000
0000
0000
0000
0000
ENDCHAR
STARTCHAR U+F676
ENCODING 63094
SWIDTH 16000 0
DWIDTH 16 0
BBX 16 16 0 0
BITMAP
0000
7F00
3600
3600
3600
7F00
0000
0000
0000
0000
0000
0000
0000
0000
0000
0000
ENDCHAR
STARTCHAR U+F677
ENCODING 63095
SWIDTH 16000 0
DWIDTH 16 0
BBX 16 16 0 0
BITMAP
0C00
7F80
1E00
3300
3300
1E00
0000
0000
0000
0000
0000
0000
0000
0000
0000
0000
ENDCHAR
STARTCHAR U+F678
ENCODING 63096
SWIDTH 16000 0
DWIDTH 16 0
BBX 16 16 0 0
BITMAP
0000
0000
0000
0000
0000
0000
0000
0000
0000
0000
0000
0000
0000
0000
0000
0000
ENDCHAR
STARTCHAR U+F679
ENCODING 63097
SWIDTH 16000 0
DWIDTH 16 0
BBX 16 16 0 0
BITMAP
0000
7F00
0300
0300
0300
0300
0000
0000
0000
0000
0000
0000
0000
0000
0000
0000
ENDCHAR
STARTCHAR U+F67A
ENCODING 63098
SWIDTH 16000 0
DWIDTH 16 0
BBX 16 16 0 0
BITMAP
0000
7F00
1B00
1B00
1B00
1B00
0000
0000
0000
0000
0000
0000
0000
0000
0000
0000
ENDCHAR
STARTCHAR U+F67B
ENCODING 63099
SWIDTH 16000 0
DWIDTH 16 0
BBX 16 16 0 0
BITMAP
0000
6000
6000
6000
6000
7F00
0000
0000
0000
0000
0000
0000
0000
0000
0000
0000
ENDCHAR
STARTCHAR U+F67C
ENCODING 63100
SWIDTH 16000 0
DWIDTH 16 0
BBX 16 16 0 0
BITMAP
0000
7F00
6000
6000
6000
7F00
0000
0000
0000
0000
0000
0000
0000
0000
0000
0000
ENDCHAR
STARTCHAR U+F67D
ENCODING 63101
SWIDTH 16000 0
DWIDTH 16 0
BBX 16 16 0 0
BITMAP
0000
7F00
6C00
6C00
6C00
7F00
0000
0000
0000
0000
0000
0000
0000
0000
0000
0000
ENDCHAR
STARTCHAR U+F67E
ENCODING 63102
SWIDTH 16000 0
DWIDTH 16 0
BBX 16 16 0 0
BITMAP
0000
7F00
0300
7F00
6000
7F00
0000
0000
0000
0000
0000
0000
0000
0000
0000
0000
ENDCHAR
STARTCHAR U+F67F
ENCODING 63103
SWIDTH 16000 0
DWIDTH 16 0
BBX 16 16 0 0
BITMAP
0000
7F00
6300
6300
6300
7F00
0000
0000
0000
0000
0000
0000
0000
0000
0000
0000
ENDCHAR
STARTCHAR U+F680
ENCODING 63104
SWIDTH 16000 0
DWIDTH 16 0
BBX 16 16 0 0
BITMAP
0000
6300
6300
7F00
6300
7F00
0000
0000
0000
0000
0000
0000
0000
0000
0000
0000
ENDCHAR
STARTCHAR U+F681
ENCODING 63105
SWIDTH 16000 0
DWIDTH 16 0
BBX 16 16 0 0
BITMAP
0000
6D80
6D80
7F80
6D80
7F80
0000
0000
0000
0000
0000
0000
0000
0000
0000
0000
ENDCHAR
STARTCHAR U+F682
ENCODING 63106
SWIDTH 16000 0
DWIDTH 16 0
BBX 16 16 0 0
BITMAP
0000
0800
1C00
3600
6300
C180
0000
0000
0000
0000
0000
0000
0000
0000
0000
0000
ENDCHAR
STARTCHAR U+F683
ENCODING 63107
SWIDTH 16000 0
DWIDTH 16 0
BBX 16 16 0 0
BITMAP
0000
0900
1B00
3F00
6D80
D8C0
0000
0000
0000
0000
0000
0000
0000
0000
0000
0000
ENDCHAR
STARTCHAR U+F684
ENCODING 63108
SWIDTH 16000 0
DWIDTH 16 0
BBX 16 16 0 0
BITMAP
0000
3E00
6300
6300
6300
3E00
0000
0000
0000
0000
0000
0000
0000
0000
0000
0000
ENDCHAR
STARTCHAR U+F685
ENCODING 63109
SWIDTH 16000 0
DWIDTH 16 0
BBX 16 16 0 0
BITMAP
0000
7F80
0C00
1E00
3300
6180
0000
0000
0000
0000
0000
0000
0000
0000
0000
0000
ENDCHAR
STARTCHAR U+F686
ENCODING 63110
SWIDTH 16000 0
DWIDTH 16 0
BBX 16 16 0 0
BITMAP
0000
7F80
1200
3F00
6D80
D8C0
0000
0000
0000
0000
0000
0000
0000
0000
0000
0000
ENDCHAR
STARTCHAR U+F687
ENCODING 63111
SWIDTH 16000 0
DWIDTH 16 0
BBX 16 16 0 0
BITMAP
0000
0C00
7F80
0C00
1E00
3300
6180
0000
0000
0000
0000
0000
0000
0000
0000
0000
ENDCHAR
STARTCHAR U+F688
ENCODING 63112
SWIDTH 16000 0
DWIDTH 16 0
BBX 16 16 0 0
BITMAP
0000
7F00
0300
3F00
0300
0300
0000
0000
0000
0000
0000
0000
0000
0000
0000
0000
ENDCHAR
STARTCHAR U+F689
ENCODING 63113
SWIDTH 16000 0
DWIDTH 16 0
BBX 16 16 0 0
BITMAP
0000
7F00
6000
7E00
6000
7F00
0000
0000
0000
0000
0000
0000
0000
0000
0000
0000
ENDCHAR
STARTCHAR U+F68A
ENCODING 63114
SWIDTH 16000 0
DWIDTH 16 0
BBX 16 16 0 0
BITMAP
0000
7F00
3600
3600
3600
7F00
0000
0000
0000
0000
0000
0000
0000
0000
0000
0000
ENDCHAR
STARTCHAR U+F68B
ENCODING 63115
SWIDTH 16000 0
DWIDTH 16 0
BBX 16 16 0 0
BITMAP
0C00
7F80
1E00
3300
3300
1E00
0000
0000
0000
0000
0000
0000
0000
0000
0000
0000
ENDCHAR
STARTCHAR U+F68C
ENCODING 63116
SWIDTH 16000 0
DWIDTH 16 0
BBX 16 16 0 0
BITMAP
0000
0000
0000
0000
0000
0000
0000
0000
0000
0000
0000
0000
0000
0000
0000
0000
ENDCHAR
STARTCHAR U+F68D
ENCODING 63117
SWIDTH 16000 0
DWIDTH 16 0
BBX 16 16 0 0
BITMAP
0000
7F00
0300
0300
0300
0300
0000
0000
0000
0000
0000
0000
0000
0000
0000
0000
ENDCHAR
STARTCHAR U+F68E
ENCODING 63118
SWIDTH 16000 0
DWIDTH 16 0
BBX 16 16 0 0
BITMAP
0000
7F00
1B00
1B00
1B00
1B00
0000
0000
0000
0000
0000
0000
0000
0000
0000
0000
ENDCHAR
STARTCHAR U+F68F
ENCODING 63119
SWIDTH 16000 0
DWIDTH 16 0
BBX 16 16 0 0
BITMAP
0000
6000
6000
6000
6000
7F00
0000
0000
0000
0000
0000
0000
0000
0000
0000
0000
ENDCHAR
STARTCHAR U+F690
ENCODING 63120
SWIDTH 16000 0
DWIDTH 16 0
BBX 16 16 0 0
BITMAP
0000
7F00
6000
6000
6000
7F00
0000
0000
0000
0000
0000
0000
0000
0000
0000
0000
ENDCHAR
STARTCHAR U+F691
ENCODING 63121
SWIDTH 16000 0
DWIDTH 16 0
BBX 16 16 0 0
BITMAP
0000
7F00
6C00
6C00
6C00
7F00
0000
0000
0000
0000
0000
0000
0000
0000
0000
0000
ENDCHAR
STARTCHAR U+F692
ENCODING 63122
SWIDTH 16000 0
DWIDTH 16 0
BBX 16 16 0 0
BITMAP
0000
7F00
0300
7F00
6000
7F00
0000
0000
0000
0000
0000
0000
0000
0000
0000
0000
ENDCHAR
STARTCHAR U+F693
ENCODING 63123
SWIDTH 16000 0
DWIDTH 16 0
BBX 16 16 0 0
BITMAP
0000
7F00
6300
6300
6300
7F00
0000
0000
0000
0000
0000
0000
0000
0000
0000
0000
ENDCHAR
STARTCHAR U+F694
ENCODING 63124
SWIDTH 16000 0
DWIDTH 16 0
BBX 16 16 0 0
BITMAP
0000
6300
6300
7F00
6300
7F00
0000
0000
0000
0000
0000
0000
0000
0000
0000
0000
ENDCHAR
STARTCHAR U+F695
ENCODING 63125
SWIDTH 16000 0
DWIDTH 16 0
BBX 16 16 0 0
BITMAP
0000
6D80
6D80
7F80
6D80
7F80
0000
0000
0000
0000
0000
0000
0000
0000
0000
0000
ENDCHAR
STARTCHAR U+F696
ENCODING 63126
SWIDTH 16000 0
DWIDTH 16 0
BBX 16 16 0 0
BITMAP
0000
0800
1C00
3600
6300
C180
0000
0000
0000
0000
0000
0000
0000
0000
0000
0000
ENDCHAR
STARTCHAR U+F697
ENCODING 63127
SWIDTH 16000 0
DWIDTH 16 0
BBX 16 16 0 0
BITMAP
0000
0900
1B00
3F00
6D80
D8C0
0000
0000
0000
0000
0000
0000
0000
0000
0000
0000
ENDCHAR
STARTCHAR U+F698
ENCODING 63128
SWIDTH 16000 0
DWIDTH 16 0
BBX 16 16 0 0
BITMAP
0000
3E00
6300
6300
6300
3E00
0000
0000
0000
0000
0000
0000
0000
0000
0000
0000
ENDCHAR
STARTCHAR U+F699
ENCODING 63129
SWIDTH 16000 0
DWIDTH 16 0
BBX 16 16 0 0
BITMAP
0000
7F80
0C00
1E00
3300
6180
0000
0000
0000
0000
0000
0000
0000
0000
0000
0000
ENDCHAR
STARTCHAR U+F69A
ENCODING 63130
SWIDTH 16000 0
DWIDTH 16 0
BBX 16 16 0 0
BITMAP
0000
7F80
1200
3F00
6D80
D8C0
0000
0000
0000
0000
0000
0000
0000
0000
0000
0000
ENDCHAR
STARTCHAR U+F69B
ENCODING 63131
SWIDTH 16000 0
DWIDTH 16 0
BBX 16 16 0 0
BITMAP
0000
0C00
7F80
0C00
1E00
3300
6180
0000
0000
0000
0000
0000
0000
0000
0000
0000
ENDCHAR
STARTCHAR U+F69C
ENCODING 63132
SWIDTH 16000 0
DWIDTH 16 0
BBX 16 16 0 0
BITMAP
0000
7F00
0300
3F00
0300
0300
0000
0000
0000
0000
0000
0000
0000
0000
0000
0000
ENDCHAR
STARTCHAR U+F69D
ENCODING 63133
SWIDTH 16000 0
DWIDTH 16 0
BBX 16 16 0 0
BITMAP
0000
7F00
6000
7E00
6000
7F00
0000
0000
0000
0000
0000
0000
0000
0000
0000
0000
ENDCHAR
STARTCHAR U+F69E
ENCODING 63134
SWIDTH 16000 0
DWIDTH 16 0
BBX 16 16 0 0
BITMAP
0000
7F00
3600
3600
3600
7F00
0000
0000
0000
0000
0000
0000
0000
0000
0000
0000
ENDCHAR
STARTCHAR U+F69F
ENCODING 63135
SWIDTH 16000 0
DWIDTH 16 0
BBX 16 16 0 0
BITMAP
0C00
7F80
1E00
3300
3300
1E00
0000
0000
0000
0000
0000
0000
0000
0000
0000
0000
ENDCHAR
STARTCHAR U+F6A0
ENCODING 63136
SWIDTH 16000 0
DWIDTH 16 0
BBX 16 16 0 0
BITMAP
0000
0000
0000
0000
0000
0000
0000
0000
0000
0000
0000
0000
0000
0000
0000
0000
ENDCHAR
STARTCHAR U+F6A1
ENCODING 63137
SWIDTH 16000 0
DWIDTH 16 0
BBX 16 16 0 0
BITMAP
0000
0030
0030
003E
0030
0030
0030
0030
0030
0000
0000
0000
0000
0000
0000
0000
ENDCHAR
STARTCHAR U+F6A2
ENCODING 63138
SWIDTH 16000 0
DWIDTH 16 0
BBX 16 16 0 0
BITMAP
0000
0036
0036
003E
0036
0036
0036
0036
0036
0000
0000
0000
0000
0000
0000
0000
ENDCHAR
STARTCHAR U+F6A3
ENCODING 63139
SWIDTH 16000 0
DWIDTH 16 0
BBX 16 16 0 0
BITMAP
0000
0030
003E
0030
003E
0030
0030
0030
0030
0000
0000
0000
0000
0000
0000
0000
ENDCHAR
STARTCHAR U+F6A4
ENCODING 63140
SWIDTH 16000 0
DWIDTH 16 0
BBX 16 16 0 0
BITMAP
0000
0036
003E
0036
003E
0036
0036
0036
0036
0000
0000
0000
0000
0000
0000
0000
ENDCHAR
STARTCHAR U+F6A5
ENCODING 63141
SWIDTH 16000 0
DWIDTH 16 0
BBX 16 16 0 0
BITMAP
0000
0018
0018
0078
0018
0018
0018
0018
0018
0000
0000
0000
0000
0000
0000
0000
ENDCHAR
STARTCHAR U+F6A6
ENCODING 63142
SWIDTH 16000 0
DWIDTH 16 0
BBX 16 16 0 0
BITMAP
0000
0036
0036
00F6
0036
0036
0036
0036
0036
0000
0000
0000
0000
0000
0000
0000
ENDCHAR
STARTCHAR U+F6A7
ENCODING 63143
SWIDTH 16000 0
DWIDTH 16 0
BBX 16 16 0 0
BITMAP
0000
0018
0078
0018
0078
0018
0018
0018
0018
0000
0000
0000
0000
0000
0000
0000
ENDCHAR
STARTCHAR U+F6A8
ENCODING 63144
SWIDTH 16000 0
DWIDTH 16 0
BBX 16 16 0 0
BITMAP
0000
0036
00F6
0036
00F6
0036
0036
0036
0036
0000
0000
0000
0000
0000
0000
0000
ENDCHAR
STARTCHAR U+F6A9
ENCODING 63145
SWIDTH 16000 0
DWIDTH 16 0
BBX 16 16 0 0
BITMAP
0000
0000
0000
0000
0000
0000
0C00
0C00
FFC0
0000
0000
0000
0000
0000
0000
0000
ENDCHAR
STARTCHAR U+F6AA
ENCODING 63146
SWIDTH 16000 0
DWIDTH 16 0
BBX 16 16 0 0
BITMAP
0000
0030
0030
003E
0030
0030
0C30
0C30
7FB0
0000
0000
0000
0000
0000
0000
0000
ENDCHAR
STARTCHAR U+F6AB
ENCODING 63147
SWIDTH 16000 0
DWIDTH 16 0
BBX 16 16 0 0
BITMAP
0000
0036
0036
003E
0036
0036
0C36
0C36
7FB6
0000
0000
0000
0000
0000
0000
0000
ENDCHAR
STARTCHAR U+F6AC
ENCODING 63148
SWIDTH 16000 0
DWIDTH 16 0
BBX 16 16 0 0
BITMAP
0000
0018
0018
0018
0018
0018
0C18
0C18
7FD8
0000
0000
0000
0000
0000
0000
0000
ENDCHAR
STARTCHAR U+F6AD
ENCODING 63149
SWIDTH 16000 0
DWIDTH 16 0
BBX 16 16 0 0
BITMAP
0000
0000
0000
0000
0000
0000
3600
3600
FFC0
0000
0000
0000
0000
0000
0000
0000
ENDCHAR
STARTCHAR U+F6AE
ENCODING 63150
SWIDTH 16000 0
DWIDTH 16 0
BBX 16 16 0 0
BITMAP
0000
0000
0000
0000
0000
0000
0000
FFC0
0C00
0C00
0000
0000
0000
0000
0000
0000
ENDCHAR
STARTCHAR U+F6AF
ENCODING 63151
SWIDTH 16000 0
DWIDTH 16 0
BBX 16 16 0 0
BITMAP
0000
0030
0030
0030
00F0
0030
0030
7FB0
0C30
0000
0000
0000
0000
0000
0000
0000
ENDCHAR
STARTCHAR U+F6B0
ENCODING 63152
SWIDTH 16000 0
DWIDTH 16 0
BBX 16 16 0 0
BITMAP
0000
0036
0036
0036
00F6
0036
0036
7FB6
0C36
0000
0000
0000
0000
0000
0000
0000
ENDCHAR
STARTCHAR U+F6B1
ENCODING 63153
SWIDTH 16000 0
DWIDTH 16 0
BBX 16 16 0 0
BITMAP
0000
0030
0030
0030
0030
0030
0030
7FB0
0C30
0000
0000
0000
0000
0000
0000
0000
ENDCHAR
STARTCHAR U+F6B2
ENCODING 63154
SWIDTH 16000 0
DWIDTH 16 0
BBX 16 16 0 0
BITMAP
0000
0000
0000
0000
0000
0000
0000
FFC0
3300
3300
0000
0000
0000
0000
0000
0000
ENDCHAR
STARTCHAR U+F6B3
ENCODING 63155
SWIDTH 16000 0
DWIDTH 16 0
BBX 16 16 0 0
BITMAP
0000
0000
0000
0000
0000
0000
0000
0000
FFC0
0000
0000
0000
0000
0000
0000
0000
ENDCHAR
STARTCHAR U+F6B4
ENCODING 63156
SWIDTH 16000 0
DWIDTH 16 0
BBX 16 16 0 0
BITMAP
0000
0030
0030
0030
0030
0030
0030
0030
7FB0
0000
0000
0000
0000
0000
0000
0000
ENDCHAR
STARTCHAR U+F6B5
ENCODING 63157
SWIDTH 16000 0
DWIDTH 16 0
BBX 16 16 0 0
BITMAP
0000
0030
0030
0030
0030
0030
0030
0030
0030
0000
0000
0000
0000
0000
0000
0000
ENDCHAR
STARTCHAR U+F6B6
ENCODING 63158
SWIDTH 16000 0
DWIDTH 16 0
BBX 16 16 0 0
BITMAP
0000
0000
0000
0000
0000
0000
0000
0000
0000
0000
0000
0000
0000
0000
0000
0000
ENDCHAR
STARTCHAR U+F6B7
ENCODING 63159
SWIDTH 16000 0
DWIDTH 16 0
BBX 16 16 0 0
BITMAP
0000
0030
0030
003E
0030
0030
0030
0030
0030
0000
0000
0000
0000
0000
0000
0000
ENDCHAR
STARTCHAR U+F6B8
ENCODING 63160
SWIDTH 16000 0
DWIDTH 16 0
BBX 16 16 0 0
BITMAP
0000
0036
0036
003E
0036
0036
0036
0036
0036
0000
0000
0000
0000
0000
0000
0000
ENDCHAR
STARTCHAR U+F6B9
ENCODING 63161
SWIDTH 16000 0
DWIDTH 16 0
BBX 16 16 0 0
BITMAP
0000
0030
003E
0030
003E
0030
0030
0030
0030
0000
0000
0000
0000
0000
0000
0000
ENDCHAR
STARTCHAR U+F6BA
ENCODING 63162
SWIDTH 16000 0
DWIDTH 16 0
BBX 16 16 0 0
BITMAP
0000
0036
003E
0036
003E
0036
0036
0036
0036
0000
0000
0000
0000
0000
0000
0000
ENDCHAR
STARTCHAR U+F6BB
ENCODING 63163
SWIDTH 16000 0
DWIDTH 16 0
BBX 16 16 0 0
BITMAP
0000
0018
0018
0078
0018
0018
0018
0018
0018
0000
0000
0000
0000
0000
0000
0000
ENDCHAR
STARTCHAR U+F6BC
ENCODING 63164
SWIDTH 16000 0
DWIDTH 16 0
BBX 16 16 0 0
BITMAP
0000
0036
0036
00F6
0036
0036
0036
0036
0036
0000
0000
0000
0000
0000
0000
0000
ENDCHAR
STARTCHAR U+F6BD
ENCODING 63165
SWIDTH 16000 0
DWIDTH 16 0
BBX 16 16 0 0
BITMAP
0000
0018
0078
0018
0078
0018
0018
0018
0018
0000
0000
0000
0000
0000
0000
0000
ENDCHAR
STARTCHAR U+F6BE
ENCODING 63166
SWIDTH 16000 0
DWIDTH 16 0
BBX 16 16 0 0
BITMAP
0000
0036
00F6
0036
00F6
0036
0036
0036
0036
0000
0000
0000
0000
0000
0000
0000
ENDCHAR
STARTCHAR U+F6BF
ENCODING 63167
SWIDTH 16000 0
DWIDTH 16 0
BBX 16 16 0 0
BITMAP
0000
0000
0000
0000
0000
0000
0C00
0C00
FFC0
0000
0000
0000
0000
0000
0000
0000
ENDCHAR
STARTCHAR U+F6C0
ENCODING 63168
SWIDTH 16000 0
DWIDTH 16 0
BBX 16 16 0 0
BITMAP
0000
0030
0030
003E
0030
0030
0C30
0C30
7FB0
0000
0000
0000
0000
0000
0000
0000
ENDCHAR
STARTCHAR U+F6C1
ENCODING 63169
SWIDTH 16000 0
DWIDTH 16 0
BBX 16 16 0 0
BITMAP
0000
0036
0036
003E
0036
0036
0C36
0C36
7FB6
0000
0000
0000
0000
0000
0000
0000
ENDCHAR
STARTCHAR U+F6C2
ENCODING 63170
SWIDTH 16000 0
DWIDTH 16 0
BBX 16 16 0 0
BITMAP
0000
0018
0018
0018
0018
0018
0C18
0C18
7FD8
0000
0000
0000
0000
0000
0000
0000
ENDCHAR
STARTCHAR U+F6C3
ENCODING 63171
SWIDTH 16000 0
DWIDTH 16 0
BBX 16 16 0 0
BITMAP
0000
0000
0000
0000
0000
0000
3600
3600
FFC0
0000
0000
0000
0000
0000
0000
0000
ENDCHAR
STARTCHAR U+F6C4
ENCODING 63172
SWIDTH 16000 0
DWIDTH 16 0
BBX 16 16 0 0
BITMAP
0000
0000
0000
0000
0000
0000
0000
FFC0
0C00
0C00
0000
0000
0000
0000
0000
0000
ENDCHAR
STARTCHAR U+F6C5
ENCODING 63173
SWIDTH 16000 0
DWIDTH 16 0
BBX 16 16 0 0
BITMAP
0000
0030
0030
0030
00F0
0030
0030
7FB0
0C30
0000
0000
0000
0000
0000
0000
0000
ENDCHAR
STARTCHAR U+F6C6
ENCODING 63174
SWIDTH 16000 0
DWIDTH 16 0
BBX 16 16 0 0
BITMAP
0000
0036
0036
0036
00F6
0036
0036
7FB6
0C36
0000
0000
0000
0000
0000
0000
0000
ENDCHAR
STARTCHAR U+F6C7
ENCODING 63175
SWIDTH 16000 0
DWIDTH 16 0
BBX 16 16 0 0
BITMAP
0000
0030
0030
0030
0030
0030
0030
7FB0
0C30
0000
0000
0000
0000
0000
0000
0000
ENDCHAR
STARTCHAR U+F6C8
ENCODING 63176
SWIDTH 16000 0
DWIDTH 16 0
BBX 16 16 0 0
BITMAP
0000
0000
0000
0000
0000
0000
0000
FFC0
3300
3300
0000
0000
0000
0000
0000
0000
ENDCHAR
STARTCHAR U+F6C9
ENCODING 63177
SWIDTH 16000 0
DWIDTH 16 0
BBX 16 16 0 0
BITMAP
0000
0000
0000
0000
0000
0000
0000
0000
FFC0
0000
0000
0000
0000
0000
0000
0000
ENDCHAR
STARTCHAR U+F6CA
ENCODING 63178
SWIDTH 16000 0
DWIDTH 16 0
BBX 16 16 0 0
BITMAP
0000
0030
0030
0030
0030
0030
0030
0030
7FB0
0000
0000
0000
0000
0000
0000
0000
ENDCHAR
STARTCHAR U+F6CB
ENCODING 63179
SWIDTH 16000 0
DWIDTH 16 0
BBX 16 16 0 0
BITMAP
0000
0030
0030
0030
0030
0030
0030
0030
0030
0000
0000
0000
0000
0000
0000
0000
ENDCHAR
STARTCHAR U+F6CC
ENCODING 63180
SWIDTH 16000 0
DWIDTH 16 0
BBX 16 16 0 0
BITMAP
0000
0000
0000
0000
0000
0000
0000
0000
0000
0000
0000
0000
0000
0000
0000
0000
ENDCHAR
STARTCHAR U+F6CD
ENCODING 63181
SWIDTH 16000 0
DWIDTH 16 0
BBX 16 16 0 0
BITMAP
0000
0030
0030
003E
0030
0030
0030
0030
0030
0000
0000
0000
0000
0000
0000
0000
ENDCHAR
STARTCHAR U+F6CE
ENCODING 63182
SWIDTH 16000 0
DWIDTH 16 0
BBX 16 16 0 0
BITMAP
0000
0036
0036
003E
0036
0036
0036
0036
0036
0000
0000
0000
0000
0000
0000
0000
ENDCHAR
STARTCHAR U+F6CF
ENCODING 63183
SWIDTH 16000 0
DWIDTH 16 0
BBX 16 16 0 0
BITMAP
0000
0030
003E
0030
003E
0030
0030
0030
0030
0000
0000
0000
0000
0000
0000
0000
ENDCHAR
STARTCHAR U+F6D0
ENCODING 63184
SWIDTH 16000 0
DWIDTH 16 0
BBX 16 16 0 0
BITMAP
0000
0036
003E
0036
003E
0036
0036
0036
0036
0000
0000
0000
0000
0000
0000
0000
ENDCHAR
STARTCHAR U+F6D1
ENCODING 63185
SWIDTH 16000 0
DWIDTH 16 0
BBX 16 16 0 0
BITMAP
0000
0018
0018
0078
0018
0018
0018
0018
0018
0000
0000
0000
0000
0000
0000
0000
ENDCHAR
STARTCHAR U+F6D2
ENCODING 63186
SWIDTH 16000 0
DWIDTH 16 0
BBX 16 16 0 0
BITMAP
0000
0036
0036
00F6
0036
0036
0036
0036
0036
0000
0000
0000
0000
0000
0000
0000
ENDCHAR
STARTCHAR U+F6D3
ENCODING 63187
SWIDTH 16000 0
DWIDTH 16 0
BBX 16 16 0 0
BITMAP
0000
0018
0078
0018
0078
0018
0018
0018
0018
0000
0000
0000
0000
0000
0000
0000
ENDCHAR
STARTCHAR U+F6D4
ENCODING 63188
SWIDTH 16000 0
DWIDTH 16 0
BBX 16 16 0 0
BITMAP
0000
0036
00F6
0036
00F6
0036
0036
0036
0036
0000
0000
0000
0000
0000
0000
0000
ENDCHAR
STARTCHAR U+F6D5
ENCODING 63189
SWIDTH 16000 0
DWIDTH 16 0
BBX 16 16 0 0
BITMAP
0000
0000
0000
0000
0000
0000
0C00
0C00
FFC0
0000
0000
0000
0000
0000
0000
0000
ENDCHAR
STARTCHAR U+F6D6
ENCODING 63190
SWIDTH 16000 0
DWIDTH 16 0
BBX 16 16 0 0
BITMAP
0000
0030
0030
003E
0030
0030
0C30
0C30
7FB0
0000
0000
0000
0000
0000
0000
0000
ENDCHAR
STARTCHAR U+F6D7
ENCODING 63191
SWIDTH 16000 0
DWIDTH 16 0
BBX 16 16 0 0
BITMAP
0000
0036
0036
003E
0036
0036
0C36
0C36
7FB6
0000
0000
0000
0000
0000
0000
0000
ENDCHAR
STARTCHAR U+F6D8
ENCODING 63192
SWIDTH 16000 0
DWIDTH 16 0
BBX 16 16 0 0
BITMAP
0000
0018
0018
0018
0018
0018
0C18
0C18
7FD8
0000
0000
0000
0000
0000
0000
0000
ENDCHAR
STARTCHAR U+F6D9
ENCODING 63193
SWIDTH 16000 0
DWIDTH 16 0
BBX 16 16 0 0
BITMAP
0000
0000
0000
0000
0000
0000
3600
3600
FFC0
0000
0000
0000
0000
0000
0000
0000
ENDCHAR
STARTCHAR U+F6DA
ENCODING 63194
SWIDTH 16000 0
DWIDTH 16 0
BBX 16 16 0 0
BITMAP
0000
0000
0000
0000
0000
0000
0000
FFC0
0C00
0C00
0000
0000
0000
0000
0000
0000
ENDCHAR
STARTCHAR U+F6DB
ENCODING 63195
SWIDTH 16000 0
DWIDTH 16 0
BBX 16 16 0 0
BITMAP
0000
0030
0030
0030
00F0
0030
0030
7FB0
0C30
0000
0000
0000
0000
0000
0000
0000
ENDCHAR
STARTCHAR U+F6DC
ENCODING 63196
SWIDTH 16000 0
DWIDTH 16 0
BBX 16 16 0 0
BITMAP
0000
0036
0036
0036
00F6
0036
0036
7FB6
0C36
0000
0000
0000
0000
0000
0000
0000
ENDCHAR
STARTCHAR U+F6DD
ENCODING 63197
SWIDTH 16000 0
DWIDTH 16 0
BBX 16 16 0 0
BITMAP
0000
0030
0030
0030
0030
0030
0030
7FB0
0C30
0000
0000
0000
0000
0000
0000
0000
ENDCHAR
STARTCHAR U+F6DE
ENCODING 63198
SWIDTH 16000 0
DWIDTH 16 0
BBX 16 16 0 0
BITMAP
0000
0000
0000
0000
0000
0000
0000
FFC0
3300
3300
0000
0000
0000
0000
0000
0000
ENDCHAR
STARTCHAR U+F6DF
ENCODING 63199
SWIDTH 16000 0
DWIDTH 16 0
BBX 16 16 0 0
BITMAP
0000
0000
0000
0000
0000
0000
0000
0000
FFC0
0000
0000
0000
0000
0000
0000
0000
ENDCHAR
STARTCHAR U+F6E0
ENCODING 63200
SWIDTH 16000 0
DWIDTH 16 0
BBX 16 16 0 0
BITMAP
0000
0030
0030
0030
0030
0030
0030
0030
7FB0
0000
0000
0000
0000
0000
0000
0000
ENDCHAR
STARTCHAR U+F6E1
ENCODING 63201
SWIDTH 16000 0
DWIDTH 16 0
BBX 16 16 0 0
BITMAP
0000
0030
0030
0030
0030
0030
0030
0030
0030
0000
0000
0000
0000
0000
0000
0000
ENDCHAR
STARTCHAR U+F6E2
ENCODING 63202
SWIDTH 16000 0
DWIDTH 16 0
BBX 16 16 0 0
BITMAP
0000
0000
0000
0000
0000
0000
0000
0000
0000
0000
0000
0000
0000
0000
0000
0000
ENDCHAR
STARTCHAR U+F6E3
ENCODING 63203
SWIDTH 16000 0
DWIDTH 16 0
BBX 16 16 0 0
BITMAP
0000
0030
0030
003E
0030
0030
0030
0030
0030
0000
0000
0000
0000
0000
0000
0000
ENDCHAR
STARTCHAR U+F6E4
ENCODING 63204
SWIDTH 16000 0
DWIDTH 16 0
BBX 16 16 0 0
BITMAP
0000
0036
0036
003E
0036
0036
0036
0036
0036
0000
0000
0000
0000
0000
0000
0000
ENDCHAR
STARTCHAR U+F6E5
ENCODING 63205
SWIDTH 16000 0
DWIDTH 16 0
BBX 16 16 0 0
BITMAP
0000
0030
003E
0030
003E
0030
0030
0030
0030
0000
0000
0000
0000
0000
0000
0000
ENDCHAR
STARTCHAR U+F6E6
ENCODING 63206
SWIDTH 16000 0
DWIDTH 16 0
BBX 16 16 0 0
BITMAP
0000
0036
003E
0036
003E
0036
0036
0036
0036
0000
0000
0000
0000
0000
0000
0000
ENDCHAR
STARTCHAR U+F6E7
ENCODING 63207
SWIDTH 16000 0
DWIDTH 16 0
BBX 16 16 0 0
BITMAP
0000
0018
0018
0078
0018
0018
0018
0018
0018
0000
0000
0000
0000
0000
0000
0000
ENDCHAR
STARTCHAR U+F6E8
ENCODING 63208
SWIDTH 16000 0
DWIDTH 16 0
BBX 16 16 0 0
BITMAP
0000
0036
0036
00F6
0036
0036
0036
0036
0036
0000
0000
0000
0000
0000
0000
0000
ENDCHAR
STARTCHAR U+F6E9
ENCODING 63209
SWIDTH 16000 0
DWIDTH 16 0
BBX 16 16 0 0
BITMAP
0000
0018
0078
0018
0078
0018
0018
0018
0018
0000
0000
0000
0000
0000
0000
0000
ENDCHAR
STARTCHAR U+F6EA
ENCODING 63210
SWIDTH 16000 0
DWIDTH 16 0
BBX 16 16 0 0
BITMAP
0000
0036
00F6
0036
00F6
0036
0036
0036
0036
0000
0000
0000
0000
0000
0000
0000
ENDCHAR
STARTCHAR U+F6EB
ENCODING 63211
SWIDTH 16000 0
DWIDTH 16 0
BBX 16 16 0 0
BITMAP
0000
0000
0000
0000
0000
0000
0C00
0C00
FFC0
0000
0000
0000
0000
0000
0000
0000
ENDCHAR
STARTCHAR U+F6EC
ENCODING 63212
SWIDTH 16000 0
DWIDTH 16 0
BBX 16 16 0 0
BITMAP
0000
0030
0030
003E
0030
0030
0C30
0C30
7FB0
0000
0000
0000
0000
0000
0000
0000
ENDCHAR
STARTCHAR U+F6ED
ENCODING 63213
SWIDTH 16000 0
DWIDTH 16 0
BBX 16 16 0 0
BITMAP
0000
0036
0036
003E
0036
0036
0C36
0C36
7FB6
0000
0000
0000
0000
0000
0000
0000
ENDCHAR
STARTCHAR U+F6EE
ENCODING 63214
SWIDTH 16000 0
DWIDTH 16 0
BBX 16 16 0 0
BITMAP
0000
0018
0018
0018
0018
0018
0C18
0C18
7FD8
0000
0000
0000
0000
0000
0000
0000
ENDCHAR
STARTCHAR U+F6EF
ENCODING 63215
SWIDTH 16000 0
DWIDTH 16 0
BBX 16 16 0 0
BITMAP
0000
0000
0000
0000
0000
0000
3600
3600
FFC0
0000
0000
0000
0000
0000
0000
0000
ENDCHAR
STARTCHAR U+F6F0
ENCODING 63216
SWIDTH 16000 0
DWIDTH 16 0
BBX 16 16 0 0
BITMAP
0000
0000
0000
0000
0000
0000
0000
FFC0
0C00
0C00
0000
0000
0000
0000
0000
0000
ENDCHAR
STARTCHAR U+F6F1
ENCODING 63217
SWIDTH 16000 0
DWIDTH 16 0
BBX 16 16 0 0
BITMAP
0000
0030
0030
0030
00F0
0030
0030
7FB0
0C30
0000
0000
0000
0000
0000
0000
0000
ENDCHAR
STARTCHAR U+F6F2
ENCODING 63218
SWIDTH 16000 0
DWIDTH 16 0
BBX 16 16 0 0
BITMAP
0000
0036
0036
0036
00F6
0036
0036
7FB6
0C36
0000
0000
0000
0000
0000
0000
0000
ENDCHAR
STARTCHAR U+F6F3
ENCODING 63219
SWIDTH 16000 0
DWIDTH 16 0
BBX 16 16 0 0
BITMAP
0000
0030
0030
0030
0030
0030
0030
7FB0
0C30
0000
0000
0000
0000
0000
0000
0000
ENDCHAR
STARTCHAR U+F6F4
ENCODING 63220
SWIDTH 16000 0
DWIDTH 16 0
BBX 16 16 0 0
BITMAP
0000
0000
0000
0000
0000
0000
0000
FFC0
3300
3300
0000
0000
0000
0000
0000
0000
ENDCHAR
STARTCHAR U+F6F5
ENCODING 63221
SWIDTH 16000 0
DWIDTH 16 0
BBX 16 16 0 0
BITMAP
0000
0000
0000
0000
0000
0000
0000
0000
FFC0
0000
0000
0000
0000
0000
0000
0000
ENDCHAR
STARTCHAR U+F6F6
ENCODING 63222
SWIDTH 16000 0
DWIDTH 16 0
BBX 16 16 0 0
BITMAP
0000
0030
0030
0030
0030
0030
0030
0030
7FB0
0000
0000
0000
0000
0000
0000
0000
ENDCHAR
STARTCHAR U+F6F7
ENCODING 63223
SWIDTH 16000 0
DWIDTH 16 0
BBX 16 16 0 0
BITMAP
0000
0030
0030
0030
0030
0030
0030
0030
0030
0000
0000
0000
0000
0000
0000
0000
ENDCHAR
STARTCHAR U+F6F8
ENCODING 63224
SWIDTH 16000 0
DWIDTH 16 0
BBX 16 16 0 0
BITMAP
0000
0000
0000
0000
0000
0000
0000
0000
0000
0000
0000
0000
0000
0000
0000
0000
ENDCHAR
STARTCHAR U+F6F9
ENCODING 63225
SWIDTH 16000 0
DWIDTH 16 0
BBX 16 16 0 0
BITMAP
0000
0000
0000
0000
0000
0000
0000
0000
0000
0000
07F8
0018
0018
0018
0000
0000
ENDCHAR
STARTCHAR U+F6FA
ENCODING 63226
SWIDTH 16000 0
DWIDTH 16 0
BBX 16 16 0 0
BITMAP
0000
0000
0000
0000
0000
0000
0000
0000
0000
0000
1FF0
0330
0330
0330
0000
0000
ENDCHAR
STARTCHAR U+F6FB
ENCODING 63227
SWIDTH 16000 0
DWIDTH 16 0
BBX 16 16 0 0
BITMAP
0000
0000
0000
0000
0000
0000
0000
0000
0000
0000
1F20
0370
03D8
038C
0000
0000
ENDCHAR
STARTCHAR U+F6FC
ENCODING 63228
SWIDTH 16000 0
DWIDTH 16 0
BBX 16 16 0 0
BITMAP
0000
0000
0000
0000
0000
0000
0000
0000
0000
0000
0600
0600
0600
07F8
0000
0000
ENDCHAR
STARTCHAR U+F6FD
ENCODING 63229
SWIDTH 16000 0
DWIDTH 16 0
BBX 16 16 0 0
BITMAP
0000
0000
0000
0000
0000
0000
0000
0000
0000
0000
1BF8
18E0
19B0
1F18
0000
0000
ENDCHAR
STARTCHAR U+F6FE
ENCODING 63230
SWIDTH 16000 0
DWIDTH 16 0
BBX 16 16 0 0
BITMAP
0000
0000
0000
0000
0000
0000
0000
0000
0000
0020
18F8
1870
18D8
1F70
0000
0000
ENDCHAR
STARTCHAR U+F6FF
ENCODING 63231
SWIDTH 16000 0
DWIDTH 16 0
BBX 16 16 0 0
BITMAP
0000
0000
0000
0000
0000
0000
0000
0000
0000
0000
03F8
0300
0300
03F8
0000
0000
ENDCHAR
STARTCHAR U+F700
ENCODING 63232
SWIDTH 16000 0
DWIDTH 16 0
BBX 16 16 0 0
BITMAP
0000
0000
0000
0000
0000
0000
0000
0000
0000
0000
03F8
0018
03F8
0300
03F8
0000
ENDCHAR
STARTCHAR U+F701
ENCODING 63233
SWIDTH 16000 0
DWIDTH 16 0
BBX 16 16 0 0
BITMAP
0000
0000
0000
0000
0000
0000
0000
0000
0000
0000
0FF8
0198
0F98
0C18
0F98
0000
ENDCHAR
STARTCHAR U+F702
ENCODING 63234
SWIDTH 16000 0
DWIDTH 16 0
BBX 16 16 0 0
BITMAP
0000
0000
0000
0000
0000
0000
0000
0000
0000
0000
0FF8
01D8
0FD8
0CD8
0FF8
0000
ENDCHAR
STARTCHAR U+F703
ENCODING 63235
SWIDTH 16000 0
DWIDTH 16 0
BBX 16 16 0 0
BITMAP
0000
0000
0000
0000
0000
0000
0000
0000
0000
0000
0FD8
01D8
0FF8
0CD8
0FF8
0000
ENDCHAR
STARTCHAR U+F704
ENCODING 63236
SWIDTH 16000 0
DWIDTH 16 0
BBX 16 16 0 0
BITMAP
0000
0000
0000
0000
0000
0000
0000
0000
0000
0000
0F90
01B0
0FF8
0CCC
0F86
0000
ENDCHAR
STARTCHAR U+F705
ENCODING 63237
SWIDTH 16000 0
DWIDTH 16 0
BBX 16 16 0 0
BITMAP
0000
0000
0000
0000
0000
0000
0000
0000
0000
0000
1FF8
03C0
1FF0
18C0
1FF8
0000
ENDCHAR
STARTCHAR U+F706
ENCODING 63238
SWIDTH 16000 0
DWIDTH 16 0
BBX 16 16 0 0
BITMAP
0000
0000
0000
0000
0000
0000
0000
0000
0000
0000
0FFC
01D8
0FD8
0CD8
0FFC
0000
ENDCHAR
STARTCHAR U+F707
ENCODING 63239
SWIDTH 16000 0
DWIDTH 16 0
BBX 16 16 0 0
BITMAP
0000
0000
0000
0000
0000
0000
0000
0000
0000
0000
0FB0
01FC
0FF8
0C4C
0FF8
0000
ENDCHAR
STARTCHAR U+F708
ENCODING 63240
SWIDTH 16000 0
DWIDTH 16 0
BBX 16 16 0 0
BITMAP
0000
0000
0000
0000
0000
0000
0000
0000
0000
0000
07F8
0618
0618
07F8
0000
0000
ENDCHAR
STARTCHAR U+F709
ENCODING 63241
SWIDTH 16000 0
DWIDTH 16 0
BBX 16 16 0 0
BITMAP
0000
0000
0000
0000
0000
0000
0000
0000
0000
0000
0618
07F8
0618
07F8
0000
0000
ENDCHAR
STARTCHAR U+F70A
ENCODING 63242
SWIDTH 16000 0
DWIDTH 16 0
BBX 16 16 0 0
BITMAP
0000
0000
0000
0000
0000
0000
0000
0000
0000
0000
0D90
0FB8
0DEC
0FC6
0000
0000
ENDCHAR
STARTCHAR U+F70B
ENCODING 63243
SWIDTH 16000 0
DWIDTH 16 0
BBX 16 16 0 0
BITMAP
0000
0000
0000
0000
0000
0000
0000
0000
0000
0040
00E0
01B0
0318
060C
0000
0000
ENDCHAR
STARTCHAR U+F70C
ENCODING 63244
SWIDTH 16000 0
DWIDTH 16 0
BBX 16 16 0 0
BITMAP
0000
0000
0000
0000
0000
0000
0000
0000
0000
0120
0360
07F0
0D98
1B0C
0000
0000
ENDCHAR
STARTCHAR U+F70D
ENCODING 63245
SWIDTH 16000 0
DWIDTH 16 0
BBX 16 16 0 0
BITMAP
0000
0000
0000
0000
0000
0000
0000
0000
0000
0000
03F0
0618
0618
03F0
0000
0000
ENDCHAR
STARTCHAR U+F70E
ENCODING 63246
SWIDTH 16000 0
DWIDTH 16 0
BBX 16 16 0 0
BITMAP
0000
0000
0000
0000
0000
0000
0000
0000
0000
0000
0FF8
01C0
0360
0C18
0000
0000
ENDCHAR
STARTCHAR U+F70F
ENCODING 63247
SWIDTH 16000 0
DWIDTH 16 0
BBX 16 16 0 0
BITMAP
0000
0000
0000
0000
0000
0000
0000
0000
0000
0180
0FF8
01C0
0360
0C18
0000
0000
ENDCHAR
STARTCHAR U+F710
ENCODING 63248
SWIDTH 16000 0
DWIDTH 16 0
BBX 16 16 0 0
BITMAP
0000
0000
0000
0000
0000
0000
0000
0000
0000
0000
07F8
0018
07F8
0018
0000
0000
ENDCHAR
STARTCHAR U+F711
ENCODING 63249
SWIDTH 16000 0
DWIDTH 16 0
BBX 16 16 0 0
BITMAP
0000
0000
0000
0000
0000
0000
0000
0000
0000
0000
07F8
0600
07F0
0600
07F8
0000
ENDCHAR
STARTCHAR U+F712
ENCODING 63250
SWIDTH 16000 0
DWIDTH 16 0
BBX 16 16 0 0
BITMAP
0000
0000
0000
0000
0000
0000
0000
0000
0000
0000
07F8
0330
0330
07F8
0000
0000
ENDCHAR
STARTCHAR U+F713
ENCODING 63251
SWIDTH 16000 0
DWIDTH 16 0
BBX 16 16 0 0
BITMAP
0000
0000
0000
0000
0000
0000
0000
0000
0000
01C0
0FF8
03E0
0630
03E0
0000
0000
ENDCHAR
STARTCHAR U+F714
ENCODING 63252
SWIDTH 16000 0
DWIDTH 16 0
BBX 16 16 0 0
BITMAP
0000
0000
0000
0000
0000
0000
0000
0000
0000
0000
0000
0000
0000
0000
0000
0000
ENDCHAR
STARTCHAR U+F715
ENCODING 63253
SWIDTH 16000 0
DWIDTH 16 0
BBX 16 16 0 0
BITMAP
0000
0000
0000
0000
0000
0000
0000
0000
0000
0000
07F8
0018
0018
0018
0000
0000
ENDCHAR
STARTCHAR U+F716
ENCODING 63254
SWIDTH 16000 0
DWIDTH 16 0
BBX 16 16 0 0
BITMAP
0000
0000
0000
0000
0000
0000
0000
0000
0000
0000
1FF0
0330
0330
0330
0000
0000
ENDCHAR
STARTCHAR U+F717
ENCODING 63255
SWIDTH 16000 0
DWIDTH 16 0
BBX 16 16 0 0
BITMAP
0000
0000
0000
0000
0000
0000
0000
0000
0000
0000
1F20
0370
03D8
038C
0000
0000
ENDCHAR
STARTCHAR U+F718
ENCODING 63256
SWIDTH 16000 0
DWIDTH 16 0
BBX 16 16 0 0
BITMAP
0000
0000
0000
0000
0000
0000
0000
0000
0000
0000
0600
0600
0600
07F8
0000
0000
ENDCHAR
STARTCHAR U+F719
ENCODING 63257
SWIDTH 16000 0
DWIDTH 16 0
BBX 16 16 0 0
BITMAP
0000
0000
0000
0000
0000
0000
0000
0000
0000
0000
1BF8
18E0
19B0
1F18
0000
0000
ENDCHAR
STARTCHAR U+F71A
ENCODING 63258
SWIDTH 16000 0
DWIDTH 16 0
BBX 16 16 0 0
BITMAP
0000
0000
0000
0000
0000
0000
0000
0000
0000
0020
18F8
1870
18D8
1F70
0000
0000
ENDCHAR
STARTCHAR U+F71B
ENCODING 63259
SWIDTH 16000 0
DWIDTH 16 0
BBX 16 16 0 0
BITMAP
0000
0000
0000
0000
0000
0000
0000
0000
0000
0000
03F8
0300
0300
03F8
0000
0000
ENDCHAR
STARTCHAR U+F71C
ENCODING 63260
SWIDTH 16000 0
DWIDTH 16 0
BBX 16 16 0 0
BITMAP
0000
0000
0000
0000
0000
0000
0000
0000
0000
0000
03F8
0018
03F8
0300
03F8
0000
ENDCHAR
STARTCHAR U+F71D
ENCODING 63261
SWIDTH 16000 0
DWIDTH 16 0
BBX 16 16 0 0
BITMAP
0000
0000
0000
0000
0000
0000
0000
0000
0000
0000
0FF8
0198
0F98
0C18
0F98
0000
ENDCHAR
STARTCHAR U+F71E
ENCODING 63262
SWIDTH 16000 0
DWIDTH 16 0
BBX 16 16 0 0
BITMAP
0000
0000
0000
0000
0000
0000
0000
0000
0000
0000
0FF8
01D8
0FD8
0CD8
0FF8
0000
ENDCHAR
STARTCHAR U+F71F
ENCODING 63263
SWIDTH 16000 0
DWIDTH 16 0
BBX 16 16 0 0
BITMAP
0000
0000
0000
0000
0000
0000
0000
0000
0000
0000
0FD8
01D8
0FF8
0CD8
0FF8
0000
ENDCHAR
STARTCHAR U+F720
ENCODING 63264
SWIDTH 16000 0
DWIDTH 16 0
BBX 16 16 0 0
BITMAP
0000
0000
0000
0000
0000
0000
0000
0000
0000
0000
0F90
01B0
0FF8
0CCC
0F86
0000
ENDCHAR
STARTCHAR U+F721
ENCODING 63265
SWIDTH 16000 0
DWIDTH 16 0
BBX 16 16 0 0
BITMAP
0000
0000
0000
0000
0000
0000
0000
0000
0000
0000
1FF8
03C0
1FF0
18C0
1FF8
0000
ENDCHAR
STARTCHAR U+F722
ENCODING 63266
SWIDTH 16000 0
DWIDTH 16 0
BBX 16 16 0 0
BITMAP
0000
0000
0000
0000
0000
0000
0000
0000
0000
0000
0FFC
01D8
0FD8
0CD8
0FFC
0000
ENDCHAR
STARTCHAR U+F723
ENCODING 63267
SWIDTH 16000 0
DWIDTH 16 0
BBX 16 16 0 0
BITMAP
0000
0000
0000
0000
0000
0000
0000
0000
0000
0000
0FB0
01FC
0FF8
0C4C
0FF8
0000
ENDCHAR
STARTCHAR U+F724
ENCODING 63268
SWIDTH 16000 0
DWIDTH 16 0
BBX 16 16 0 0
BITMAP
0000
0000
0000
0000
0000
0000
0000
0000
0000
0000
07F8
0618
0618
07F8
0000
0000
ENDCHAR
STARTCHAR U+F725
ENCODING 63269
SWIDTH 16000 0
DWIDTH 16 0
BBX 16 16 0 0
BITMAP
0000
0000
0000
0000
0000
0000
0000
0000
0000
0000
0618
07F8
0618
07F8
0000
0000
ENDCHAR
STARTCHAR U+F726
ENCODING 63270
SWIDTH 16000 0
DWIDTH 16 0
BBX 16 16 0 0
BITMAP
0000
0000
0000
0000
0000
0000
0000
0000
0000
0000
0D90
0FB8
0DEC
0FC6
0000
0000
ENDCHAR
STARTCHAR U+F727
ENCODING 63271
SWIDTH 16000 0
DWIDTH 16 0
BBX 16 16 0 0
BITMAP
0000
0000
0000
0000
0000
0000
0000
0000
0000
0040
00E0
01B0
0318
060C
0000
0000
ENDCHAR
STARTCHAR U+F728
ENCODING 63272
SWIDTH 16000 0
DWIDTH 16 0
BBX 16 16 0 0
BITMAP
0000
0000
0000
0000
0000
0000
0000
0000
0000
0120
0360
07F0
0D98
1B0C
0000
0000
ENDCHAR
STARTCHAR U+F729
ENCODING 63273
SWIDTH 16000 0
DWIDTH 16 0
BBX 16 16 0 0
BITMAP
0000
0000
0000
0000
0000
0000
0000
0000
0000
0000
03F0
0618
0618
03F0
0000
0000
ENDCHAR
STARTCHAR U+F72A
ENCODING 63274
SWIDTH 16000 0
DWIDTH 16 0
BBX 16 16 0 0
BITMAP
0000
0000
0000
0000
0000
0000
0000
0000
0000
0000
0FF8
01C0
0360
0C18
0000
0000
ENDCHAR
STARTCHAR U+F72B
ENCODING 63275
SWIDTH 16000 0
DWIDTH 16 0
BBX 16 16 0 0
BITMAP
0000
0000
0000
0000
0000
0000
0000
0000
0000
0180
0FF8
01C0
0360
0C18
0000
0000
ENDCHAR
STARTCHAR U+F72C
ENCODING 63276
SWIDTH 16000 0
DWIDTH 16 0
BBX 16 16 0 0
BITMAP
0000
0000
0000
0000
0000
0000
0000
0000
0000
0000
07F8
0018
07F8
0018
0000
0000
ENDCHAR
STARTCHAR U+F72D
ENCODING 63277
SWIDTH 16000 0
DWIDTH 16 0
BBX 16 16 0 0
BITMAP
0000
0000
0000
0000
0000
0000
0000
0000
0000
0000
07F8
0600
07F0
0600
07F8
0000
ENDCHAR
STARTCHAR U+F72E
ENCODING 63278
SWIDTH 16000 0
DWIDTH 16 0
BBX 16 16 0 0
BITMAP
0000
0000
0000
0000
0000
0000
0000
0000
0000
0000
07F8
0330
0330
07F8
0000
0000
ENDCHAR
STARTCHAR U+F72F
ENCODING 63279
SWIDTH 16000 0
DWIDTH 16 0
BBX 16 16 0 0
BITMAP
0000
0000
0000
0000
0000
0000
0000
0000
0000
01C0
0FF8
03E0
0630
03E0
0000
0000
ENDCHAR
STARTCHAR U+F730
ENCODING 63280
SWIDTH 16000 0
DWIDTH 16 0
BBX 16 16 0 0
BITMAP
0000
0000
0000
0000
0000
0000
0000
0000
0000
0000
0000
0000
0000
0000
0000
0000
ENDCHAR
STARTCHAR U+F731
ENCODING 63281
SWIDTH 16000 0
DWIDTH 16 0
BBX 16 16 0 0
BITMAP
0000
0000
0000
0000
0000
0000
0000
0000
0000
0000
01FE
0006
0006
0006
0000
0000
ENDCHAR
STARTCHAR U+F732
ENCODING 63282
SWIDTH 16000 0
DWIDTH 16 0
BBX 16 16 0 0
BITMAP
0000
0000
0000
0000
0000
0000
0000
0000
0000
0000
03FE
0066
0066
0066
0000
0000
ENDCHAR
STARTCHAR U+F733
ENCODING 63283
SWIDTH 16000 0
DWIDTH 16 0
BBX 16 16 0 0
BITMAP
0000
0000
0000
0000
0000
0000
0000
0000
0000
0000
07C8
00DC
00F6
00E3
0000
0000
ENDCHAR
STARTCHAR U+F734
ENCODING 63284
SWIDTH 16000 0
DWIDTH 16 0
BBX 16 16 0 0
BITMAP
0000
0000
0000
0000
0000
0000
0000
0000
0000
0000
0180
0180
0180
01FE
0000
0000
ENDCHAR
STARTCHAR U+F735
ENCODING 63285
SWIDTH 16000 0
DWIDTH 16 0
BBX 16 16 0 0
BITMAP
0000
0000
0000
0000
0000
0000
0000
0000
0000
0000
06FE
0638
066C
07C6
0000
0000
ENDCHAR
STARTCHAR U+F736
ENCODING 63286
SWIDTH 16000 0
DWIDTH 16 0
BBX 16 16 0 0
BITMAP
0000
0000
0000
0000
0000
0000
0000
0000
0000
0008
063E
061C
0636
07DC
0000
0000
ENDCHAR
STARTCHAR U+F737
ENCODING 63287
SWIDTH 16000 0
DWIDTH 16 0
BBX 16 16 0 0
BITMAP
0000
0000
0000
0000
0000
0000
0000
0000
0000
0000
01FE
0180
0180
01FE
0000
0000
ENDCHAR
STARTCHAR U+F738
ENCODING 63288
SWIDTH 16000 0
DWIDTH 16 0
BBX 16 16 0 0
BITMAP
0000
0000
0000
0000
0000
0000
0000
0000
0000
0000
01FE
0006
01FE
0180
01FE
0000
ENDCHAR
STARTCHAR U+F739
ENCODING 63289
SWIDTH 16000 0
DWIDTH 16 0
BBX 16 16 0 0
BITMAP
0000
0000
0000
0000
0000
0000
0000
0000
0000
0000
03FE
0066
03E6
0306
03E6
0000
ENDCHAR
STARTCHAR U+F73A
ENCODING 63290
SWIDTH 16000 0
DWIDTH 16 0
BBX 16 16 0 0
BITMAP
0000
0000
0000
0000
0000
0000
0000
0000
0000
0000
03FE
0076
03F6
0336
03FE
0000
ENDCHAR
STARTCHAR U+F73B
ENCODING 63291
SWIDTH 16000 0
DWIDTH 16 0
BBX 16 16 0 0
BITMAP
0000
0000
0000
0000
0000
0000
0000
0000
0000
0000
03F6
0076
03FE
0336
03FE
0000
ENDCHAR
STARTCHAR U+F73C
ENCODING 63292
SWIDTH 16000 0
DWIDTH 16 0
BBX 16 16 0 0
BITMAP
0000
0000
0000
0000
0000
0000
0000
0000
0000
0000
07C8
00D8
07FC
0666
07C3
0000
ENDCHAR
STARTCHAR U+F73D
ENCODING 63293
SWIDTH 16000 0
DWIDTH 16 0
BBX 16 16 0 0
BITMAP
0000
0000
0000
0000
0000
0000
0000
0000
0000
0000
07FE
00F0
07FC
0630
07FE
0000
ENDCHAR
STARTCHAR U+F73E
ENCODING 63294
SWIDTH 16000 0
DWIDTH 16 0
BBX 16 16 0 0
BITMAP
0000
0000
0000
0000
0000
0000
0000
0000
0000
0000
07FE
00EC
07EC
066C
07FE
0000
ENDCHAR
STARTCHAR U+F73F
ENCODING 63295
SWIDTH 16000 0
DWIDTH 16 0
BBX 16 16 0 0
BITMAP
0000
0000
0000
0000
0000
0000
0000
0000
0000
0000
07D8
00FE
07FC
0626
07FC
0000
ENDCHAR
STARTCHAR U+F740
ENCODING 63296
SWIDTH 16000 0
DWIDTH 16 0
BBX 16 16 0 0
BITMAP
0000
0000
0000
0000
0000
0000
0000
0000
0000
0000
01FE
0186
0186
01FE
0000
0000
ENDCHAR
STARTCHAR U+F741
ENCODING 63297
SWIDTH 16000 0
DWIDTH 16 0
BBX 16 16 0 0
BITMAP
0000
0000
0000
0000
0000
0000
0000
0000
0000
0000
0186
01FE
0186
01FE
0000
0000
ENDCHAR
STARTCHAR U+F742
ENCODING 63298
SWIDTH 16000 0
DWIDTH 16 0
BBX 16 16 0 0
BITMAP
0000
0000
0000
0000
0000
0000
0000
0000
0000
0000
06C8
07DC
06F6
07E3
0000
0000
ENDCHAR
STARTCHAR U+F743
ENCODING 63299
SWIDTH 16000 0
DWIDTH 16 0
BBX 16 16 0 0
BITMAP
0000
0000
0000
0000
0000
0000
0000
0000
0000
0020
0070
00D8
018C
0306
0000
0000
ENDCHAR
STARTCHAR U+F744
ENCODING 63300
SWIDTH 16000 0
DWIDTH 16 0
BBX 16 16 0 0
BITMAP
0000
0000
0000
0000
0000
0000
0000
0000
0000
0048
00D8
01FC
0366
06C3
0000
0000
ENDCHAR
STARTCHAR U+F745
ENCODING 63301
SWIDTH 16000 0
DWIDTH 16 0
BBX 16 16 0 0
BITMAP
0000
0000
0000
0000
0000
0000
0000
0000
0000
0000
00FC
0186
0186
00FC
0000
0000
ENDCHAR
STARTCHAR U+F746
ENCODING 63302
SWIDTH 16000 0
DWIDTH 16 0
BBX 16 16 0 0
BITMAP
0000
0000
0000
0000
0000
0000
0000
0000
0000
0000
03FE
0070
00D8
0306
0000
0000
ENDCHAR
STARTCHAR U+F747
ENCODING 63303
SWIDTH 16000 0
DWIDTH 16 0
BBX 16 16 0 0
BITMAP
0000
0000
0000
0000
0000
0000
0000
0000
0000
0060
03FE
0070
00D8
0306
0000
0000
ENDCHAR
STARTCHAR U+F748
ENCODING 63304
SWIDTH 16000 0
DWIDTH 16 0
BBX 16 16 0 0
BITMAP
0000
0000
0000
0000
0000
0000
0000
0000
0000
0000
01FE
0006
01FE
0006
0000
0000
ENDCHAR
STARTCHAR U+F749
ENCODING 63305
SWIDTH 16000 0
DWIDTH 16 0
BBX 16 16 0 0
BITMAP
0000
0000
0000
0000
0000
0000
0000
0000
0000
0000
01FE
0180
01FC
0180
01FE
0000
ENDCHAR
STARTCHAR U+F74A
ENCODING 63306
SWIDTH 16000 0
DWIDTH 16 0
BBX 16 16 0 0
BITMAP
0000
0000
0000
0000
0000
0000
0000
0000
0000
0000
01FE
00CC
00CC
01FE
0000
0000
ENDCHAR
STARTCHAR U+F74B
ENCODING 63307
SWIDTH 16000 0
DWIDTH 16 0
BBX 16 16 0 0
BITMAP
0000
0000
0000
0000
0000
0000
0000
0000
0000
0070
03FE
00F8
018C
00F8
0000
0000
ENDCHAR
STARTCHAR U+F74C
ENCODING 63308
SWIDTH 16000 0
DWIDTH 16 0
BBX 16 16 0 0
BITMAP
0000
0000
0000
0000
0000
0000
0000
0000
0000
0000
0000
0000
0000
0000
0000
0000
ENDCHAR
STARTCHAR U+F74D
ENCODING 63309
SWIDTH 16000 0
DWIDTH 16 0
BBX 16 16 0 0
BITMAP
0000
0000
0000
0000
0000
0000
0000
0000
0000
0000
7F80
0180
0180
0180
0000
0000
ENDCHAR
STARTCHAR U+F74E
ENCODING 63310
SWIDTH 16000 0
DWIDTH 16 0
BBX 16 16 0 0
BITMAP
0000
0000
0000
0000
0000
0000
0000
0000
0000
0000
FF80
1980
1980
1980
0000
0000
ENDCHAR
STARTCHAR U+F74F
ENCODING 63311
SWIDTH 16000 0
DWIDTH 16 0
BBX 16 16 0 0
BITMAP
0000
0000
0000
0000
0000
0000
0000
0000
0000
0000
F900
1B80
1EC0
1C60
0000
0000
ENDCHAR
STARTCHAR U+F750
ENCODING 63312
SWIDTH 16000 0
DWIDTH 16 0
BBX 16 16 0 0
BITMAP
0000
0000
0000
0000
0000
0000
0000
0000
0000
0000
6000
6000
6000
7F80
0000
0000
ENDCHAR
STARTCHAR U+F751
ENCODING 63313
SWIDTH 16000 0
DWIDTH 16 0
BBX 16 16 0 0
BITMAP
0000
0000
0000
0000
0000
0000
0000
0000
0000
0000
DFC0
C700
CD80
F8C0
0000
0000
ENDCHAR
STARTCHAR U+F752
ENCODING 63314
SWIDTH 16000 0
DWIDTH 16 0
BBX 16 16 0 0
BITMAP
0000
0000
0000
0000
0000
0000
0000
0000
0000
0100
C7C0
C380
C6C0
FB80
0000
0000
ENDCHAR
STARTCHAR U+F753
ENCODING 63315
SWIDTH 16000 0
DWIDTH 16 0
BBX 16 16 0 0
BITMAP
0000
0000
0000
0000
0000
0000
0000
0000
0000
0000
7F80
6000
6000
7F80
0000
0000
ENDCHAR
STARTCHAR U+F754
ENCODING 63316
SWIDTH 16000 0
DWIDTH 16 0
BBX 16 16 0 0
BITMAP
0000
0000
0000
0000
0000
0000
0000
0000
0000
0000
7F80
0180
7F80
6000
7F80
0000
ENDCHAR
STARTCHAR U+F755
ENCODING 63317
SWIDTH 16000 0
DWIDTH 16 0
BBX 16 16 0 0
BITMAP
0000
0000
0000
0000
0000
0000
0000
0000
0000
0000
FF80
1980
F980
C180
F980
0000
ENDCHAR
STARTCHAR U+F756
ENCODING 63318
SWIDTH 16000 0
DWIDTH 16 0
BBX 16 16 0 0
BITMAP
0000
0000
0000
0000
0000
0000
0000
0000
0000
0000
FF80
1D80
FD80
CD80
FF80
0000
ENDCHAR
STARTCHAR U+F757
ENCODING 63319
SWIDTH 16000 0
DWIDTH 16 0
BBX 16 16 0 0
BITMAP
0000
0000
0000
0000
0000
0000
0000
0000
0000
0000
FD80
1D80
FF80
CD80
FF80
0000
ENDCHAR
STARTCHAR U+F758
ENCODING 63320
SWIDTH 16000 0
DWIDTH 16 0
BBX 16 16 0 0
BITMAP
0000
0000
0000
0000
0000
0000
0000
0000
0000
0000
F900
1B00
FF80
CCC0
F860
0000
ENDCHAR
STARTCHAR U+F759
ENCODING 63321
SWIDTH 16000 0
DWIDTH 16 0
BBX 16 16 0 0
BITMAP
0000
0000
0000
0000
0000
0000
0000
0000
0000
0000
FFC0
1E00
FF80
C600
FFC0
0000
ENDCHAR
STARTCHAR U+F75A
ENCODING 63322
SWIDTH 16000 0
DWIDTH 16 0
BBX 16 16 0 0
BITMAP
0000
0000
0000
0000
0000
0000
0000
0000
0000
0000
FFC0
1D80
FD80
CD80
FFC0
0000
ENDCHAR
STARTCHAR U+F75B
ENCODING 63323
SWIDTH 16000 0
DWIDTH 16 0
BBX 16 16 0 0
BITMAP
0000
0000
0000
0000
0000
0000
0000
0000
0000
0000
FB00
1FC0
FF80
C4C0
FF80
0000
ENDCHAR
STARTCHAR U+F75C
ENCODING 63324
SWIDTH 16000 0
DWIDTH 16 0
BBX 16 16 0 0
BITMAP
0000
0000
0000
0000
0000
0000
0000
0000
0000
0000
7F80
6180
6180
7F80
0000
0000
ENDCHAR
STARTCHAR U+F75D
ENCODING 63325
SWIDTH 16000 0
DWIDTH 16 0
BBX 16 16 0 0
BITMAP
0000
0000
0000
0000
0000
0000
0000
0000
0000
0000
6180
7F80
6180
7F80
0000
0000
ENDCHAR
STARTCHAR U+F75E
ENCODING 63326
SWIDTH 16000 0
DWIDTH 16 0
BBX 16 16 0 0
BITMAP
0000
0000
0000
0000
0000
0000
0000
0000
0000
0000
D900
FB80
DEC0
FC60
0000
0000
ENDCHAR
STARTCHAR U+F75F
ENCODING 63327
SWIDTH 16000 0
DWIDTH 16 0
BBX 16 16 0 0
BITMAP
0000
0000
0000
0000
0000
0000
0000
0000
0000
0000
0E00
1B00
3180
60C0
0000
0000
ENDCHAR
STARTCHAR U+F760
ENCODING 63328
SWIDTH 16000 0
DWIDTH 16 0
BBX 16 16 0 0
BITMAP
0000
0000
0000
0000
0000
0000
0000
0000
0000
0000
1B00
3F80
6CC0
D860
0000
0000
ENDCHAR
STARTCHAR U+F761
ENCODING 63329
SWIDTH 16000 0
DWIDTH 16 0
BBX 16 16 0 0
BITMAP
0000
0000
0000
0000
0000
0000
0000
0000
0000
0000
3F00
6180
6180
3F00
0000
0000
ENDCHAR
STARTCHAR U+F762
ENCODING 63330
SWIDTH 16000 0
DWIDTH 16 0
BBX 16 16 0 0
BITMAP
0000
0000
0000
0000
0000
0000
0000
0000
0000
0000
7FC0
0E00
1B00
60C0
0000
0000
ENDCHAR
STARTCHAR U+F763
ENCODING 63331
SWIDTH 16000 0
DWIDTH 16 0
BBX 16 16 0 0
BITMAP
0000
0000
0000
0000
0000
0000
0000
0000
0000
0000
0C00
7FC0
0E00
1B00
60C0
0000
ENDCHAR
STARTCHAR U+F764
ENCODING 63332
SWIDTH 16000 0
DWIDTH 16 0
BBX 16 16 0 0
BITMAP
0000
0000
0000
0000
0000
0000
0000
0000
0000
0000
7F80
0180
7F80
0180
0000
0000
ENDCHAR
STARTCHAR U+F765
ENCODING 63333
SWIDTH 16000 0
DWIDTH 16 0
BBX 16 16 0 0
BITMAP
0000
0000
0000
0000
0000
0000
0000
0000
0000
0000
7F80
6000
7F00
6000
7F80
0000
ENDCHAR
STARTCHAR U+F766
ENCODING 63334
SWIDTH 16000 0
DWIDTH 16 0
BBX 16 16 0 0
BITMAP
0000
0000
0000
0000
0000
0000
0000
0000
0000
0000
7F80
3300
3300
7F80
0000
0000
ENDCHAR
STARTCHAR U+F767
ENCODING 63335
SWIDTH 16000 0
DWIDTH 16 0
BBX 16 16 0 0
BITMAP
0000
0000
0000
0000
0000
0000
0000
0000
0000
0000
0E00
7FC0
1F00
3180
1F00
0000
ENDCHAR
ENDFONT
